<svg xmlns="http://www.w3.org/2000/svg" width="1280" height="650" viewBox="0 0 1280 650">
<rect width="100%" height="100%" fill="#ffffff"/>
<style>text{font-family:Inter,Arial,sans-serif;fill:#111111}.title{font-size:30px;font-weight:700}.subtitle{font-size:15px;fill:#4b5563}.axis{font-size:16px;font-weight:700;fill:#111111}.tick{font-size:14px;fill:#111111}.label{font-size:11px;fill:#111111}.legend{font-size:15px;fill:#111111}.grid{stroke:#d9d9d9;stroke-width:1}.axisline{stroke:#111111;stroke-width:1.7}</style>
<line class="grid" x1="105" y1="518.0" x2="1225" y2="518.0"/>
<text class="tick" x="95" y="522.0" text-anchor="end">0</text>
<line class="grid" x1="105" y1="423.4" x2="1225" y2="423.4"/>
<text class="tick" x="95" y="427.4" text-anchor="end">200</text>
<line class="grid" x1="105" y1="328.8" x2="1225" y2="328.8"/>
<text class="tick" x="95" y="332.8" text-anchor="end">400</text>
<line class="grid" x1="105" y1="234.2" x2="1225" y2="234.2"/>
<text class="tick" x="95" y="238.2" text-anchor="end">600</text>
<line class="grid" x1="105" y1="139.6" x2="1225" y2="139.6"/>
<text class="tick" x="95" y="143.6" text-anchor="end">800</text>
<line class="grid" x1="105" y1="45.0" x2="1225" y2="45.0"/>
<text class="tick" x="95" y="49.0" text-anchor="end">1000</text>
<line class="axisline" x1="105" y1="45" x2="105" y2="518"/>
<line class="axisline" x1="105" y1="518" x2="1225" y2="518"/>
<text class="axis" x="28" y="281.5" text-anchor="middle" transform="rotate(-90 28 281.5)">Execution time, ROI (µs)</text>
<text class="axis" x="665.0" y="622" text-anchor="middle">Benchmark</text>
<text class="axis" x="185.0" y="553" text-anchor="middle">vvadd</text>
<rect x="122.6" y="508.9" width="27.5" height="9.1" fill="#111111" stroke="#111111" stroke-width="1.2" rx="2"/>
<rect x="155.1" y="509.5" width="27.5" height="8.5" fill="#555555" stroke="#000000" stroke-width="1.2" rx="2"/>
<rect x="187.5" y="508.0" width="27.5" height="10.0" fill="#999999" stroke="#000000" stroke-width="1.2" rx="2"/>
<rect x="219.9" y="508.0" width="27.5" height="10.0" fill="#d0d0d0" stroke="#000000" stroke-width="1.2" rx="2"/>
<text class="axis" x="345.0" y="553" text-anchor="middle">multiply</text>
<rect x="282.6" y="503.2" width="27.5" height="14.8" fill="#111111" stroke="#111111" stroke-width="1.2" rx="2"/>
<rect x="315.1" y="503.1" width="27.5" height="14.9" fill="#555555" stroke="#000000" stroke-width="1.2" rx="2"/>
<rect x="347.5" y="499.8" width="27.5" height="18.2" fill="#999999" stroke="#000000" stroke-width="1.2" rx="2"/>
<rect x="380.0" y="498.7" width="27.5" height="19.3" fill="#d0d0d0" stroke="#000000" stroke-width="1.2" rx="2"/>
<text class="axis" x="505.0" y="553" text-anchor="middle">median</text>
<rect x="442.6" y="333.9" width="27.5" height="184.1" fill="#111111" stroke="#111111" stroke-width="1.2" rx="2"/>
<rect x="475.1" y="346.2" width="27.5" height="171.8" fill="#555555" stroke="#000000" stroke-width="1.2" rx="2"/>
<rect x="507.5" y="331.7" width="27.5" height="186.3" fill="#999999" stroke="#000000" stroke-width="1.2" rx="2"/>
<rect x="540.0" y="331.7" width="27.5" height="186.3" fill="#d0d0d0" stroke="#000000" stroke-width="1.2" rx="2"/>
<text class="axis" x="665.0" y="553" text-anchor="middle">sort</text>
<rect x="602.6" y="429.0" width="27.5" height="89.0" fill="#111111" stroke="#111111" stroke-width="1.2" rx="2"/>
<rect x="635.1" y="435.0" width="27.5" height="83.0" fill="#555555" stroke="#000000" stroke-width="1.2" rx="2"/>
<rect x="667.5" y="409.4" width="27.5" height="108.6" fill="#999999" stroke="#000000" stroke-width="1.2" rx="2"/>
<rect x="700.0" y="409.4" width="27.5" height="108.6" fill="#d0d0d0" stroke="#000000" stroke-width="1.2" rx="2"/>
<text class="axis" x="825.0" y="553" text-anchor="middle">rsort</text>
<rect x="762.6" y="336.3" width="27.5" height="181.7" fill="#111111" stroke="#111111" stroke-width="1.2" rx="2"/>
<rect x="795.1" y="348.4" width="27.5" height="169.6" fill="#555555" stroke="#000000" stroke-width="1.2" rx="2"/>
<rect x="827.5" y="289.0" width="27.5" height="229.0" fill="#999999" stroke="#000000" stroke-width="1.2" rx="2"/>
<rect x="860.0" y="289.0" width="27.5" height="229.0" fill="#d0d0d0" stroke="#000000" stroke-width="1.2" rx="2"/>
<text class="axis" x="985.0" y="553" text-anchor="middle">mm</text>
<rect x="922.6" y="400.0" width="27.5" height="118.0" fill="#111111" stroke="#111111" stroke-width="1.2" rx="2"/>
<rect x="955.1" y="396.5" width="27.5" height="121.5" fill="#555555" stroke="#000000" stroke-width="1.2" rx="2"/>
<rect x="987.5" y="400.0" width="27.5" height="118.0" fill="#999999" stroke="#000000" stroke-width="1.2" rx="2"/>
<rect x="1020.0" y="387.8" width="27.5" height="130.2" fill="#d0d0d0" stroke="#000000" stroke-width="1.2" rx="2"/>
<text class="axis" x="1145.0" y="553" text-anchor="middle">dhrystone</text>
<rect x="1082.6" y="454.3" width="27.5" height="63.7" fill="#111111" stroke="#111111" stroke-width="1.2" rx="2"/>
<rect x="1115.0" y="458.6" width="27.5" height="59.4" fill="#555555" stroke="#000000" stroke-width="1.2" rx="2"/>
<rect x="1147.5" y="446.9" width="27.5" height="71.1" fill="#999999" stroke="#000000" stroke-width="1.2" rx="2"/>
<rect x="1179.9" y="446.9" width="27.5" height="71.1" fill="#d0d0d0" stroke="#000000" stroke-width="1.2" rx="2"/>
<rect x="105" y="581" width="16" height="16" fill="#111111" stroke="#111111" stroke-width="1.2" rx="2"/>
<text class="legend" x="129" y="594">Baseline</text>
<rect x="335" y="581" width="16" height="16" fill="#555555" stroke="#000000" stroke-width="1.2" rx="2"/>
<text class="legend" x="359" y="594">No MUL fwd</text>
<rect x="565" y="581" width="16" height="16" fill="#999999" stroke="#000000" stroke-width="1.2" rx="2"/>
<text class="legend" x="589" y="594">No ALU fwd</text>
<rect x="795" y="581" width="16" height="16" fill="#d0d0d0" stroke="#000000" stroke-width="1.2" rx="2"/>
<text class="legend" x="819" y="594">No ALU+MUL fwd</text>
</svg>
