<svg xmlns="http://www.w3.org/2000/svg" width="1280" height="720" viewBox="0 0 1280 720">
<rect width="100%" height="100%" fill="#ffffff"/>
<style>text{font-family:Inter,Arial,sans-serif;fill:#111827}.title{font-size:30px;font-weight:700}.subtitle{font-size:15px;fill:#4b5563}.axis{font-size:15px;font-weight:600;fill:#374151}.tick{font-size:13px;fill:#6b7280}.label{font-size:11px;fill:#111827}.legend{font-size:14px}.grid{stroke:#e5e7eb;stroke-width:1}.axisline{stroke:#374151;stroke-width:1.5}</style>
<text class="title" x="640.0" y="38" text-anchor="middle">RTL Benchmark Execution Time</text>
<text class="subtitle" x="640.0" y="64" text-anchor="middle">Grouped by benchmark; colors match the utilization plot RTL versions</text>
<line class="grid" x1="105" y1="588.0" x2="1225" y2="588.0"/>
<text class="tick" x="95" y="592.0" text-anchor="end">0</text>
<line class="grid" x1="105" y1="490.0" x2="1225" y2="490.0"/>
<text class="tick" x="95" y="494.0" text-anchor="end">200</text>
<line class="grid" x1="105" y1="392.0" x2="1225" y2="392.0"/>
<text class="tick" x="95" y="396.0" text-anchor="end">400</text>
<line class="grid" x1="105" y1="294.0" x2="1225" y2="294.0"/>
<text class="tick" x="95" y="298.0" text-anchor="end">600</text>
<line class="grid" x1="105" y1="196.0" x2="1225" y2="196.0"/>
<text class="tick" x="95" y="200.0" text-anchor="end">800</text>
<line class="grid" x1="105" y1="98.0" x2="1225" y2="98.0"/>
<text class="tick" x="95" y="102.0" text-anchor="end">1000</text>
<line class="axisline" x1="105" y1="98" x2="105" y2="588"/>
<line class="axisline" x1="105" y1="588" x2="1225" y2="588"/>
<text class="axis" x="28" y="343.0" text-anchor="middle" transform="rotate(-90 28 343.0)">Execution time, ROI (µs)</text>
<text class="axis" x="665.0" y="692" text-anchor="middle">Benchmark</text>
<text class="axis" x="185.0" y="623" text-anchor="middle">vvadd</text>
<rect x="122.6" y="578.6" width="27.5" height="9.4" fill="#2563eb" rx="3"/>
<text class="label" x="136.3" y="571.6" text-anchor="middle" transform="rotate(-35 136.3 571.6)">19.2</text>
<rect x="155.1" y="579.2" width="27.5" height="8.8" fill="#dc2626" rx="3"/>
<text class="label" x="168.8" y="572.2" text-anchor="middle" transform="rotate(-35 168.8 572.2)">17.9</text>
<rect x="187.5" y="577.6" width="27.5" height="10.4" fill="#16a34a" rx="3"/>
<text class="label" x="201.2" y="570.6" text-anchor="middle" transform="rotate(-35 201.2 570.6)">21.2</text>
<rect x="219.9" y="577.6" width="27.5" height="10.4" fill="#9333ea" rx="3"/>
<text class="label" x="233.7" y="570.6" text-anchor="middle" transform="rotate(-35 233.7 570.6)">21.2</text>
<text class="axis" x="345.0" y="623" text-anchor="middle">multiply</text>
<rect x="282.6" y="572.7" width="27.5" height="15.3" fill="#2563eb" rx="3"/>
<text class="label" x="296.3" y="565.7" text-anchor="middle" transform="rotate(-35 296.3 565.7)">31.3</text>
<rect x="315.1" y="572.6" width="27.5" height="15.4" fill="#dc2626" rx="3"/>
<text class="label" x="328.8" y="565.6" text-anchor="middle" transform="rotate(-35 328.8 565.6)">31.4</text>
<rect x="347.5" y="569.1" width="27.5" height="18.9" fill="#16a34a" rx="3"/>
<text class="label" x="361.2" y="562.1" text-anchor="middle" transform="rotate(-35 361.2 562.1)">38.5</text>
<rect x="380.0" y="568.0" width="27.5" height="20.0" fill="#9333ea" rx="3"/>
<text class="label" x="393.7" y="561.0" text-anchor="middle" transform="rotate(-35 393.7 561.0)">40.9</text>
<text class="axis" x="505.0" y="623" text-anchor="middle">median</text>
<rect x="442.6" y="397.3" width="27.5" height="190.7" fill="#2563eb" rx="3"/>
<text class="label" x="456.3" y="390.3" text-anchor="middle" transform="rotate(-35 456.3 390.3)">389</text>
<rect x="475.1" y="410.0" width="27.5" height="178.0" fill="#dc2626" rx="3"/>
<text class="label" x="488.8" y="403.0" text-anchor="middle" transform="rotate(-35 488.8 403.0)">363</text>
<rect x="507.5" y="395.1" width="27.5" height="192.9" fill="#16a34a" rx="3"/>
<text class="label" x="521.2" y="388.1" text-anchor="middle" transform="rotate(-35 521.2 388.1)">394</text>
<rect x="540.0" y="395.1" width="27.5" height="192.9" fill="#9333ea" rx="3"/>
<text class="label" x="553.7" y="388.1" text-anchor="middle" transform="rotate(-35 553.7 388.1)">394</text>
<text class="axis" x="665.0" y="623" text-anchor="middle">sort</text>
<rect x="602.6" y="495.9" width="27.5" height="92.1" fill="#2563eb" rx="3"/>
<text class="label" x="616.3" y="488.9" text-anchor="middle" transform="rotate(-35 616.3 488.9)">188</text>
<rect x="635.1" y="502.0" width="27.5" height="86.0" fill="#dc2626" rx="3"/>
<text class="label" x="648.8" y="495.0" text-anchor="middle" transform="rotate(-35 648.8 495.0)">176</text>
<rect x="667.5" y="475.5" width="27.5" height="112.5" fill="#16a34a" rx="3"/>
<text class="label" x="681.2" y="468.5" text-anchor="middle" transform="rotate(-35 681.2 468.5)">230</text>
<rect x="700.0" y="475.5" width="27.5" height="112.5" fill="#9333ea" rx="3"/>
<text class="label" x="713.7" y="468.5" text-anchor="middle" transform="rotate(-35 713.7 468.5)">230</text>
<text class="axis" x="825.0" y="623" text-anchor="middle">rsort</text>
<rect x="762.6" y="399.8" width="27.5" height="188.2" fill="#2563eb" rx="3"/>
<text class="label" x="776.3" y="392.8" text-anchor="middle" transform="rotate(-35 776.3 392.8)">384</text>
<rect x="795.1" y="412.3" width="27.5" height="175.7" fill="#dc2626" rx="3"/>
<text class="label" x="808.8" y="405.3" text-anchor="middle" transform="rotate(-35 808.8 405.3)">358</text>
<rect x="827.5" y="350.8" width="27.5" height="237.2" fill="#16a34a" rx="3"/>
<text class="label" x="841.2" y="343.8" text-anchor="middle" transform="rotate(-35 841.2 343.8)">484</text>
<rect x="860.0" y="350.8" width="27.5" height="237.2" fill="#9333ea" rx="3"/>
<text class="label" x="873.7" y="343.8" text-anchor="middle" transform="rotate(-35 873.7 343.8)">484</text>
<text class="axis" x="985.0" y="623" text-anchor="middle">mm</text>
<rect x="922.6" y="465.8" width="27.5" height="122.2" fill="#2563eb" rx="3"/>
<text class="label" x="936.3" y="458.8" text-anchor="middle" transform="rotate(-35 936.3 458.8)">249</text>
<rect x="955.1" y="462.1" width="27.5" height="125.9" fill="#dc2626" rx="3"/>
<text class="label" x="968.8" y="455.1" text-anchor="middle" transform="rotate(-35 968.8 455.1)">257</text>
<rect x="987.5" y="465.8" width="27.5" height="122.2" fill="#16a34a" rx="3"/>
<text class="label" x="1001.2" y="458.8" text-anchor="middle" transform="rotate(-35 1001.2 458.8)">249</text>
<rect x="1020.0" y="453.1" width="27.5" height="134.9" fill="#9333ea" rx="3"/>
<text class="label" x="1033.7" y="446.1" text-anchor="middle" transform="rotate(-35 1033.7 446.1)">275</text>
<text class="axis" x="1145.0" y="623" text-anchor="middle">dhrystone</text>
<rect x="1082.6" y="522.0" width="27.5" height="66.0" fill="#2563eb" rx="3"/>
<text class="label" x="1096.3" y="515.0" text-anchor="middle" transform="rotate(-35 1096.3 515.0)">135</text>
<rect x="1115.0" y="526.4" width="27.5" height="61.6" fill="#dc2626" rx="3"/>
<text class="label" x="1128.8" y="519.4" text-anchor="middle" transform="rotate(-35 1128.8 519.4)">126</text>
<rect x="1147.5" y="514.4" width="27.5" height="73.6" fill="#16a34a" rx="3"/>
<text class="label" x="1161.2" y="507.4" text-anchor="middle" transform="rotate(-35 1161.2 507.4)">150</text>
<rect x="1179.9" y="514.4" width="27.5" height="73.6" fill="#9333ea" rx="3"/>
<text class="label" x="1193.7" y="507.4" text-anchor="middle" transform="rotate(-35 1193.7 507.4)">150</text>
<rect x="105" y="651" width="16" height="16" fill="#2563eb" rx="2"/>
<text class="legend" x="129" y="664">Baseline</text>
<rect x="335" y="651" width="16" height="16" fill="#dc2626" rx="2"/>
<text class="legend" x="359" y="664">No MUL fwd</text>
<rect x="565" y="651" width="16" height="16" fill="#16a34a" rx="2"/>
<text class="legend" x="589" y="664">No ALU fwd</text>
<rect x="795" y="651" width="16" height="16" fill="#9333ea" rx="2"/>
<text class="legend" x="819" y="664">No ALU+MUL fwd</text>
</svg>
