<svg xmlns="http://www.w3.org/2000/svg" width="1180" height="600" viewBox="0 0 1180 600">
<rect width="100%" height="100%" fill="#ffffff"/>
<style>text{font-family:Inter,Arial,sans-serif;fill:#111111}.title{font-size:30px;font-weight:700}.subtitle{font-size:15px;fill:#4b5563}.axis{font-size:16px;font-weight:700;fill:#111111}.tick{font-size:14px;fill:#111111}.label{font-size:13px;fill:#111111}.legend{font-size:15px;fill:#111111}.grid{stroke:#d9d9d9;stroke-width:1}.axisline{stroke:#111111;stroke-width:1.7}</style>
<line class="grid" x1="100" y1="475.0" x2="1135" y2="475.0"/>
<text class="tick" x="90" y="479.0" text-anchor="end">0</text>
<line class="grid" x1="100" y1="367.5" x2="1135" y2="367.5"/>
<text class="tick" x="90" y="371.5" text-anchor="end">200</text>
<line class="grid" x1="100" y1="260.0" x2="1135" y2="260.0"/>
<text class="tick" x="90" y="264.0" text-anchor="end">400</text>
<line class="grid" x1="100" y1="152.5" x2="1135" y2="152.5"/>
<text class="tick" x="90" y="156.5" text-anchor="end">600</text>
<line class="grid" x1="100" y1="45.0" x2="1135" y2="45.0"/>
<text class="tick" x="90" y="49.0" text-anchor="end">800</text>
<line class="axisline" x1="100" y1="45" x2="100" y2="475"/>
<line class="axisline" x1="100" y1="475" x2="1135" y2="475"/>
<text class="axis" x="28" y="260.0" transform="rotate(-90 28 260.0)" text-anchor="middle">Timing path count</text>
<text class="axis" x="617.5" y="572" text-anchor="middle">Vivado datapath delay (ns, lower is better)</text>
<line class="axisline" x1="100.0" y1="475" x2="100.0" y2="481"/>
<text class="tick" x="100.0" y="499" text-anchor="middle">0</text>
<line class="axisline" x1="272.5" y1="475" x2="272.5" y2="481"/>
<text class="tick" x="272.5" y="499" text-anchor="middle">2.5</text>
<line class="axisline" x1="445.0" y1="475" x2="445.0" y2="481"/>
<text class="tick" x="445.0" y="499" text-anchor="middle">5</text>
<line class="axisline" x1="617.5" y1="475" x2="617.5" y2="481"/>
<text class="tick" x="617.5" y="499" text-anchor="middle">7.5</text>
<line class="axisline" x1="790.0" y1="475" x2="790.0" y2="481"/>
<text class="tick" x="790.0" y="499" text-anchor="middle">10</text>
<line class="axisline" x1="962.5" y1="475" x2="962.5" y2="481"/>
<text class="tick" x="962.5" y="499" text-anchor="middle">12.5</text>
<line class="axisline" x1="1135.0" y1="475" x2="1135.0" y2="481"/>
<text class="tick" x="1135.0" y="499" text-anchor="middle">15</text>
<rect x="108.0" y="475.0" width="3.0" height="0.0" fill="#111111" stroke="#111111" stroke-width="1.2" rx="2"/>
<rect x="113.0" y="475.0" width="3.0" height="0.0" fill="#555555" stroke="#000000" stroke-width="1.2" rx="2"/>
<rect x="118.0" y="475.0" width="3.0" height="0.0" fill="#999999" stroke="#000000" stroke-width="1.2" rx="2"/>
<rect x="123.0" y="475.0" width="3.0" height="0.0" fill="#d0d0d0" stroke="#000000" stroke-width="1.2" rx="2"/>
<rect x="142.5" y="472.3" width="3.0" height="2.7" fill="#111111" stroke="#111111" stroke-width="1.2" rx="2"/>
<rect x="147.5" y="471.8" width="3.0" height="3.2" fill="#555555" stroke="#000000" stroke-width="1.2" rx="2"/>
<rect x="152.5" y="469.1" width="3.0" height="5.9" fill="#999999" stroke="#000000" stroke-width="1.2" rx="2"/>
<rect x="157.5" y="467.5" width="3.0" height="7.5" fill="#d0d0d0" stroke="#000000" stroke-width="1.2" rx="2"/>
<rect x="177.0" y="459.4" width="3.0" height="15.6" fill="#111111" stroke="#111111" stroke-width="1.2" rx="2"/>
<rect x="182.0" y="458.3" width="3.0" height="16.7" fill="#555555" stroke="#000000" stroke-width="1.2" rx="2"/>
<rect x="187.0" y="459.9" width="3.0" height="15.1" fill="#999999" stroke="#000000" stroke-width="1.2" rx="2"/>
<rect x="192.0" y="461.0" width="3.0" height="14.0" fill="#d0d0d0" stroke="#000000" stroke-width="1.2" rx="2"/>
<rect x="211.5" y="468.0" width="3.0" height="7.0" fill="#111111" stroke="#111111" stroke-width="1.2" rx="2"/>
<rect x="216.5" y="465.9" width="3.0" height="9.1" fill="#555555" stroke="#000000" stroke-width="1.2" rx="2"/>
<rect x="221.5" y="463.7" width="3.0" height="11.3" fill="#999999" stroke="#000000" stroke-width="1.2" rx="2"/>
<rect x="226.5" y="462.6" width="3.0" height="12.4" fill="#d0d0d0" stroke="#000000" stroke-width="1.2" rx="2"/>
<rect x="246.0" y="473.4" width="3.0" height="1.6" fill="#111111" stroke="#111111" stroke-width="1.2" rx="2"/>
<rect x="251.0" y="468.0" width="3.0" height="7.0" fill="#555555" stroke="#000000" stroke-width="1.2" rx="2"/>
<rect x="256.0" y="464.8" width="3.0" height="10.2" fill="#999999" stroke="#000000" stroke-width="1.2" rx="2"/>
<rect x="261.0" y="468.0" width="3.0" height="7.0" fill="#d0d0d0" stroke="#000000" stroke-width="1.2" rx="2"/>
<rect x="280.5" y="472.9" width="3.0" height="2.1" fill="#111111" stroke="#111111" stroke-width="1.2" rx="2"/>
<rect x="285.5" y="466.4" width="3.0" height="8.6" fill="#555555" stroke="#000000" stroke-width="1.2" rx="2"/>
<rect x="290.5" y="463.7" width="3.0" height="11.3" fill="#999999" stroke="#000000" stroke-width="1.2" rx="2"/>
<rect x="295.5" y="468.6" width="3.0" height="6.5" fill="#d0d0d0" stroke="#000000" stroke-width="1.2" rx="2"/>
<rect x="315.0" y="458.3" width="3.0" height="16.7" fill="#111111" stroke="#111111" stroke-width="1.2" rx="2"/>
<rect x="320.0" y="465.9" width="3.0" height="9.1" fill="#555555" stroke="#000000" stroke-width="1.2" rx="2"/>
<rect x="325.0" y="443.8" width="3.0" height="31.2" fill="#999999" stroke="#000000" stroke-width="1.2" rx="2"/>
<rect x="330.0" y="465.9" width="3.0" height="9.1" fill="#d0d0d0" stroke="#000000" stroke-width="1.2" rx="2"/>
<rect x="349.5" y="430.9" width="3.0" height="44.1" fill="#111111" stroke="#111111" stroke-width="1.2" rx="2"/>
<rect x="354.5" y="442.8" width="3.0" height="32.2" fill="#555555" stroke="#000000" stroke-width="1.2" rx="2"/>
<rect x="359.5" y="463.2" width="3.0" height="11.8" fill="#999999" stroke="#000000" stroke-width="1.2" rx="2"/>
<rect x="364.5" y="442.8" width="3.0" height="32.2" fill="#d0d0d0" stroke="#000000" stroke-width="1.2" rx="2"/>
<rect x="384.0" y="394.9" width="3.0" height="80.1" fill="#111111" stroke="#111111" stroke-width="1.2" rx="2"/>
<rect x="389.0" y="416.9" width="3.0" height="58.1" fill="#555555" stroke="#000000" stroke-width="1.2" rx="2"/>
<rect x="394.0" y="461.6" width="3.0" height="13.4" fill="#999999" stroke="#000000" stroke-width="1.2" rx="2"/>
<rect x="399.0" y="444.9" width="3.0" height="30.1" fill="#d0d0d0" stroke="#000000" stroke-width="1.2" rx="2"/>
<rect x="418.5" y="329.9" width="3.0" height="145.1" fill="#111111" stroke="#111111" stroke-width="1.2" rx="2"/>
<rect x="423.5" y="347.6" width="3.0" height="127.4" fill="#555555" stroke="#000000" stroke-width="1.2" rx="2"/>
<rect x="428.5" y="451.4" width="3.0" height="23.6" fill="#999999" stroke="#000000" stroke-width="1.2" rx="2"/>
<rect x="433.5" y="387.9" width="3.0" height="87.1" fill="#d0d0d0" stroke="#000000" stroke-width="1.2" rx="2"/>
<rect x="453.0" y="299.8" width="3.0" height="175.2" fill="#111111" stroke="#111111" stroke-width="1.2" rx="2"/>
<rect x="458.0" y="291.2" width="3.0" height="183.8" fill="#555555" stroke="#000000" stroke-width="1.2" rx="2"/>
<rect x="463.0" y="396.0" width="3.0" height="79.0" fill="#999999" stroke="#000000" stroke-width="1.2" rx="2"/>
<rect x="468.0" y="333.1" width="3.0" height="141.9" fill="#d0d0d0" stroke="#000000" stroke-width="1.2" rx="2"/>
<rect x="487.5" y="311.6" width="3.0" height="163.4" fill="#111111" stroke="#111111" stroke-width="1.2" rx="2"/>
<rect x="492.5" y="315.4" width="3.0" height="159.6" fill="#555555" stroke="#000000" stroke-width="1.2" rx="2"/>
<rect x="497.5" y="332.6" width="3.0" height="142.4" fill="#999999" stroke="#000000" stroke-width="1.2" rx="2"/>
<rect x="502.5" y="304.6" width="3.0" height="170.4" fill="#d0d0d0" stroke="#000000" stroke-width="1.2" rx="2"/>
<rect x="522.0" y="373.4" width="3.0" height="101.6" fill="#111111" stroke="#111111" stroke-width="1.2" rx="2"/>
<rect x="527.0" y="330.9" width="3.0" height="144.1" fill="#555555" stroke="#000000" stroke-width="1.2" rx="2"/>
<rect x="532.0" y="320.7" width="3.0" height="154.3" fill="#999999" stroke="#000000" stroke-width="1.2" rx="2"/>
<rect x="537.0" y="311.6" width="3.0" height="163.4" fill="#d0d0d0" stroke="#000000" stroke-width="1.2" rx="2"/>
<rect x="556.5" y="411.0" width="3.0" height="64.0" fill="#111111" stroke="#111111" stroke-width="1.2" rx="2"/>
<rect x="561.5" y="387.4" width="3.0" height="87.6" fill="#555555" stroke="#000000" stroke-width="1.2" rx="2"/>
<rect x="566.5" y="290.1" width="3.0" height="184.9" fill="#999999" stroke="#000000" stroke-width="1.2" rx="2"/>
<rect x="571.5" y="387.9" width="3.0" height="87.1" fill="#d0d0d0" stroke="#000000" stroke-width="1.2" rx="2"/>
<rect x="591.0" y="419.1" width="3.0" height="55.9" fill="#111111" stroke="#111111" stroke-width="1.2" rx="2"/>
<rect x="596.0" y="405.7" width="3.0" height="69.3" fill="#555555" stroke="#000000" stroke-width="1.2" rx="2"/>
<rect x="601.0" y="314.8" width="3.0" height="160.2" fill="#999999" stroke="#000000" stroke-width="1.2" rx="2"/>
<rect x="606.0" y="396.5" width="3.0" height="78.5" fill="#d0d0d0" stroke="#000000" stroke-width="1.2" rx="2"/>
<rect x="625.5" y="400.8" width="3.0" height="74.2" fill="#111111" stroke="#111111" stroke-width="1.2" rx="2"/>
<rect x="630.5" y="422.3" width="3.0" height="52.7" fill="#555555" stroke="#000000" stroke-width="1.2" rx="2"/>
<rect x="635.5" y="398.1" width="3.0" height="76.9" fill="#999999" stroke="#000000" stroke-width="1.2" rx="2"/>
<rect x="640.5" y="397.6" width="3.0" height="77.4" fill="#d0d0d0" stroke="#000000" stroke-width="1.2" rx="2"/>
<rect x="660.0" y="450.8" width="3.0" height="24.2" fill="#111111" stroke="#111111" stroke-width="1.2" rx="2"/>
<rect x="665.0" y="459.9" width="3.0" height="15.1" fill="#555555" stroke="#000000" stroke-width="1.2" rx="2"/>
<rect x="670.0" y="440.1" width="3.0" height="34.9" fill="#999999" stroke="#000000" stroke-width="1.2" rx="2"/>
<rect x="675.0" y="421.8" width="3.0" height="53.2" fill="#d0d0d0" stroke="#000000" stroke-width="1.2" rx="2"/>
<rect x="694.5" y="468.6" width="3.0" height="6.5" fill="#111111" stroke="#111111" stroke-width="1.2" rx="2"/>
<rect x="699.5" y="459.9" width="3.0" height="15.1" fill="#555555" stroke="#000000" stroke-width="1.2" rx="2"/>
<rect x="704.5" y="441.7" width="3.0" height="33.3" fill="#999999" stroke="#000000" stroke-width="1.2" rx="2"/>
<rect x="709.5" y="455.1" width="3.0" height="19.9" fill="#d0d0d0" stroke="#000000" stroke-width="1.2" rx="2"/>
<rect x="729.0" y="461.0" width="3.0" height="14.0" fill="#111111" stroke="#111111" stroke-width="1.2" rx="2"/>
<rect x="734.0" y="455.1" width="3.0" height="19.9" fill="#555555" stroke="#000000" stroke-width="1.2" rx="2"/>
<rect x="739.0" y="462.1" width="3.0" height="12.9" fill="#999999" stroke="#000000" stroke-width="1.2" rx="2"/>
<rect x="744.0" y="468.0" width="3.0" height="7.0" fill="#d0d0d0" stroke="#000000" stroke-width="1.2" rx="2"/>
<rect x="763.5" y="438.4" width="3.0" height="36.6" fill="#111111" stroke="#111111" stroke-width="1.2" rx="2"/>
<rect x="768.5" y="394.4" width="3.0" height="80.6" fill="#555555" stroke="#000000" stroke-width="1.2" rx="2"/>
<rect x="773.5" y="456.7" width="3.0" height="18.3" fill="#999999" stroke="#000000" stroke-width="1.2" rx="2"/>
<rect x="778.5" y="464.2" width="3.0" height="10.8" fill="#d0d0d0" stroke="#000000" stroke-width="1.2" rx="2"/>
<rect x="798.0" y="441.7" width="3.0" height="33.3" fill="#111111" stroke="#111111" stroke-width="1.2" rx="2"/>
<rect x="803.0" y="365.4" width="3.0" height="109.7" fill="#555555" stroke="#000000" stroke-width="1.2" rx="2"/>
<rect x="808.0" y="430.9" width="3.0" height="44.1" fill="#999999" stroke="#000000" stroke-width="1.2" rx="2"/>
<rect x="813.0" y="450.3" width="3.0" height="24.7" fill="#d0d0d0" stroke="#000000" stroke-width="1.2" rx="2"/>
<rect x="832.5" y="408.9" width="3.0" height="66.1" fill="#111111" stroke="#111111" stroke-width="1.2" rx="2"/>
<rect x="837.5" y="352.5" width="3.0" height="122.5" fill="#555555" stroke="#000000" stroke-width="1.2" rx="2"/>
<rect x="842.5" y="320.2" width="3.0" height="154.8" fill="#999999" stroke="#000000" stroke-width="1.2" rx="2"/>
<rect x="847.5" y="320.7" width="3.0" height="154.3" fill="#d0d0d0" stroke="#000000" stroke-width="1.2" rx="2"/>
<rect x="867.0" y="390.6" width="3.0" height="84.4" fill="#111111" stroke="#111111" stroke-width="1.2" rx="2"/>
<rect x="872.0" y="310.0" width="3.0" height="165.0" fill="#555555" stroke="#000000" stroke-width="1.2" rx="2"/>
<rect x="877.0" y="315.9" width="3.0" height="159.1" fill="#999999" stroke="#000000" stroke-width="1.2" rx="2"/>
<rect x="882.0" y="162.7" width="3.0" height="312.3" fill="#d0d0d0" stroke="#000000" stroke-width="1.2" rx="2"/>
<rect x="901.5" y="339.6" width="3.0" height="135.4" fill="#111111" stroke="#111111" stroke-width="1.2" rx="2"/>
<rect x="906.5" y="362.1" width="3.0" height="112.9" fill="#555555" stroke="#000000" stroke-width="1.2" rx="2"/>
<rect x="911.5" y="365.9" width="3.0" height="109.1" fill="#999999" stroke="#000000" stroke-width="1.2" rx="2"/>
<rect x="916.5" y="106.8" width="3.0" height="368.2" fill="#d0d0d0" stroke="#000000" stroke-width="1.2" rx="2"/>
<rect x="936.0" y="357.3" width="3.0" height="117.7" fill="#111111" stroke="#111111" stroke-width="1.2" rx="2"/>
<rect x="941.0" y="335.2" width="3.0" height="139.8" fill="#555555" stroke="#000000" stroke-width="1.2" rx="2"/>
<rect x="946.0" y="360.0" width="3.0" height="115.0" fill="#999999" stroke="#000000" stroke-width="1.2" rx="2"/>
<rect x="951.0" y="284.2" width="3.0" height="190.8" fill="#d0d0d0" stroke="#000000" stroke-width="1.2" rx="2"/>
<rect x="970.5" y="377.2" width="3.0" height="97.8" fill="#111111" stroke="#111111" stroke-width="1.2" rx="2"/>
<rect x="975.5" y="134.2" width="3.0" height="340.8" fill="#555555" stroke="#000000" stroke-width="1.2" rx="2"/>
<rect x="980.5" y="213.2" width="3.0" height="261.8" fill="#999999" stroke="#000000" stroke-width="1.2" rx="2"/>
<rect x="985.5" y="332.0" width="3.0" height="143.0" fill="#d0d0d0" stroke="#000000" stroke-width="1.2" rx="2"/>
<rect x="1005.0" y="405.1" width="3.0" height="69.9" fill="#111111" stroke="#111111" stroke-width="1.2" rx="2"/>
<rect x="1010.0" y="298.2" width="3.0" height="176.8" fill="#555555" stroke="#000000" stroke-width="1.2" rx="2"/>
<rect x="1015.0" y="348.1" width="3.0" height="126.8" fill="#999999" stroke="#000000" stroke-width="1.2" rx="2"/>
<rect x="1020.0" y="436.3" width="3.0" height="38.7" fill="#d0d0d0" stroke="#000000" stroke-width="1.2" rx="2"/>
<rect x="1039.5" y="306.2" width="3.0" height="168.8" fill="#111111" stroke="#111111" stroke-width="1.2" rx="2"/>
<rect x="1044.5" y="471.2" width="3.0" height="3.8" fill="#555555" stroke="#000000" stroke-width="1.2" rx="2"/>
<rect x="1049.5" y="285.3" width="3.0" height="189.7" fill="#999999" stroke="#000000" stroke-width="1.2" rx="2"/>
<rect x="1054.5" y="462.1" width="3.0" height="12.9" fill="#d0d0d0" stroke="#000000" stroke-width="1.2" rx="2"/>
<rect x="1074.0" y="112.2" width="3.0" height="362.8" fill="#111111" stroke="#111111" stroke-width="1.2" rx="2"/>
<rect x="1079.0" y="475.0" width="3.0" height="0.0" fill="#555555" stroke="#000000" stroke-width="1.2" rx="2"/>
<rect x="1084.0" y="402.4" width="3.0" height="72.6" fill="#999999" stroke="#000000" stroke-width="1.2" rx="2"/>
<rect x="1089.0" y="473.4" width="3.0" height="1.6" fill="#d0d0d0" stroke="#000000" stroke-width="1.2" rx="2"/>
<rect x="1108.5" y="416.9" width="3.0" height="58.1" fill="#111111" stroke="#111111" stroke-width="1.2" rx="2"/>
<rect x="1113.5" y="475.0" width="3.0" height="0.0" fill="#555555" stroke="#000000" stroke-width="1.2" rx="2"/>
<rect x="1118.5" y="472.9" width="3.0" height="2.1" fill="#999999" stroke="#000000" stroke-width="1.2" rx="2"/>
<rect x="1123.5" y="475.0" width="3.0" height="0.0" fill="#d0d0d0" stroke="#000000" stroke-width="1.2" rx="2"/>
<rect x="100" y="522" width="16" height="16" fill="#111111" stroke="#111111" stroke-width="1.2" rx="2"/>
<text class="legend" x="124" y="535">Baseline</text>
<rect x="330" y="522" width="16" height="16" fill="#555555" stroke="#000000" stroke-width="1.2" rx="2"/>
<text class="legend" x="354" y="535">No MUL fwd</text>
<rect x="560" y="522" width="16" height="16" fill="#999999" stroke="#000000" stroke-width="1.2" rx="2"/>
<text class="legend" x="584" y="535">No ALU fwd</text>
<rect x="790" y="522" width="16" height="16" fill="#d0d0d0" stroke="#000000" stroke-width="1.2" rx="2"/>
<text class="legend" x="814" y="535">No ALU+MUL fwd</text>
</svg>
