<svg xmlns="http://www.w3.org/2000/svg" width="1180" height="660" viewBox="0 0 1180 660">
<rect width="100%" height="100%" fill="#ffffff"/>
<style>text{font-family:Inter,Arial,sans-serif;fill:#111827}.title{font-size:30px;font-weight:700}.subtitle{font-size:15px;fill:#4b5563}.axis{font-size:15px;font-weight:600;fill:#374151}.tick{font-size:13px;fill:#6b7280}.grid{stroke:#e5e7eb}.axisline{stroke:#374151;stroke-width:1.5}.legend{font-size:14px}</style>
<text class="title" x="590.0" y="38" text-anchor="middle">Datapath Delay Distribution</text>
<text class="subtitle" x="590.0" y="64" text-anchor="middle">Post-implementation timing paths from Vivado report_timing</text>
<line class="grid" x1="100" y1="535.0" x2="1135" y2="535.0"/>
<text class="tick" x="90" y="539.0" text-anchor="end">0</text>
<line class="grid" x1="100" y1="423.8" x2="1135" y2="423.8"/>
<text class="tick" x="90" y="427.8" text-anchor="end">200</text>
<line class="grid" x1="100" y1="312.5" x2="1135" y2="312.5"/>
<text class="tick" x="90" y="316.5" text-anchor="end">400</text>
<line class="grid" x1="100" y1="201.2" x2="1135" y2="201.2"/>
<text class="tick" x="90" y="205.2" text-anchor="end">600</text>
<line class="grid" x1="100" y1="90.0" x2="1135" y2="90.0"/>
<text class="tick" x="90" y="94.0" text-anchor="end">800</text>
<line class="axisline" x1="100" y1="90" x2="100" y2="535"/>
<line class="axisline" x1="100" y1="535" x2="1135" y2="535"/>
<text class="axis" x="28" y="312.5" transform="rotate(-90 28 312.5)" text-anchor="middle">Timing path count</text>
<text class="axis" x="617.5" y="632" text-anchor="middle">Vivado datapath delay (ns, lower is better)</text>
<line class="axisline" x1="100.0" y1="535" x2="100.0" y2="541"/>
<text class="tick" x="100.0" y="559" text-anchor="middle">0</text>
<line class="axisline" x1="272.5" y1="535" x2="272.5" y2="541"/>
<text class="tick" x="272.5" y="559" text-anchor="middle">2.5</text>
<line class="axisline" x1="445.0" y1="535" x2="445.0" y2="541"/>
<text class="tick" x="445.0" y="559" text-anchor="middle">5</text>
<line class="axisline" x1="617.5" y1="535" x2="617.5" y2="541"/>
<text class="tick" x="617.5" y="559" text-anchor="middle">7.5</text>
<line class="axisline" x1="790.0" y1="535" x2="790.0" y2="541"/>
<text class="tick" x="790.0" y="559" text-anchor="middle">10</text>
<line class="axisline" x1="962.5" y1="535" x2="962.5" y2="541"/>
<text class="tick" x="962.5" y="559" text-anchor="middle">12.5</text>
<line class="axisline" x1="1135.0" y1="535" x2="1135.0" y2="541"/>
<text class="tick" x="1135.0" y="559" text-anchor="middle">15</text>
<rect x="108.0" y="535.0" width="3.0" height="0.0" fill="#2563eb" rx="1"/>
<rect x="113.0" y="535.0" width="3.0" height="0.0" fill="#dc2626" rx="1"/>
<rect x="118.0" y="535.0" width="3.0" height="0.0" fill="#16a34a" rx="1"/>
<rect x="123.0" y="535.0" width="3.0" height="0.0" fill="#9333ea" rx="1"/>
<rect x="142.5" y="532.2" width="3.0" height="2.8" fill="#2563eb" rx="1"/>
<rect x="147.5" y="531.7" width="3.0" height="3.3" fill="#dc2626" rx="1"/>
<rect x="152.5" y="528.9" width="3.0" height="6.1" fill="#16a34a" rx="1"/>
<rect x="157.5" y="527.2" width="3.0" height="7.8" fill="#9333ea" rx="1"/>
<rect x="177.0" y="518.9" width="3.0" height="16.1" fill="#2563eb" rx="1"/>
<rect x="182.0" y="517.8" width="3.0" height="17.2" fill="#dc2626" rx="1"/>
<rect x="187.0" y="519.4" width="3.0" height="15.6" fill="#16a34a" rx="1"/>
<rect x="192.0" y="520.5" width="3.0" height="14.5" fill="#9333ea" rx="1"/>
<rect x="211.5" y="527.8" width="3.0" height="7.2" fill="#2563eb" rx="1"/>
<rect x="216.5" y="525.5" width="3.0" height="9.5" fill="#dc2626" rx="1"/>
<rect x="221.5" y="523.3" width="3.0" height="11.7" fill="#16a34a" rx="1"/>
<rect x="226.5" y="522.2" width="3.0" height="12.8" fill="#9333ea" rx="1"/>
<rect x="246.0" y="533.3" width="3.0" height="1.7" fill="#2563eb" rx="1"/>
<rect x="251.0" y="527.8" width="3.0" height="7.2" fill="#dc2626" rx="1"/>
<rect x="256.0" y="524.4" width="3.0" height="10.6" fill="#16a34a" rx="1"/>
<rect x="261.0" y="527.8" width="3.0" height="7.2" fill="#9333ea" rx="1"/>
<rect x="280.5" y="532.8" width="3.0" height="2.2" fill="#2563eb" rx="1"/>
<rect x="285.5" y="526.1" width="3.0" height="8.9" fill="#dc2626" rx="1"/>
<rect x="290.5" y="523.3" width="3.0" height="11.7" fill="#16a34a" rx="1"/>
<rect x="295.5" y="528.3" width="3.0" height="6.7" fill="#9333ea" rx="1"/>
<rect x="315.0" y="517.8" width="3.0" height="17.2" fill="#2563eb" rx="1"/>
<rect x="320.0" y="525.5" width="3.0" height="9.5" fill="#dc2626" rx="1"/>
<rect x="325.0" y="502.7" width="3.0" height="32.3" fill="#16a34a" rx="1"/>
<rect x="330.0" y="525.5" width="3.0" height="9.5" fill="#9333ea" rx="1"/>
<rect x="349.5" y="489.4" width="3.0" height="45.6" fill="#2563eb" rx="1"/>
<rect x="354.5" y="501.6" width="3.0" height="33.4" fill="#dc2626" rx="1"/>
<rect x="359.5" y="522.8" width="3.0" height="12.2" fill="#16a34a" rx="1"/>
<rect x="364.5" y="501.6" width="3.0" height="33.4" fill="#9333ea" rx="1"/>
<rect x="384.0" y="452.1" width="3.0" height="82.9" fill="#2563eb" rx="1"/>
<rect x="389.0" y="474.9" width="3.0" height="60.1" fill="#dc2626" rx="1"/>
<rect x="394.0" y="521.1" width="3.0" height="13.9" fill="#16a34a" rx="1"/>
<rect x="399.0" y="503.9" width="3.0" height="31.2" fill="#9333ea" rx="1"/>
<rect x="418.5" y="384.8" width="3.0" height="150.2" fill="#2563eb" rx="1"/>
<rect x="423.5" y="403.2" width="3.0" height="131.8" fill="#dc2626" rx="1"/>
<rect x="428.5" y="510.5" width="3.0" height="24.5" fill="#16a34a" rx="1"/>
<rect x="433.5" y="444.9" width="3.0" height="90.1" fill="#9333ea" rx="1"/>
<rect x="453.0" y="353.7" width="3.0" height="181.3" fill="#2563eb" rx="1"/>
<rect x="458.0" y="344.8" width="3.0" height="190.2" fill="#dc2626" rx="1"/>
<rect x="463.0" y="453.2" width="3.0" height="81.8" fill="#16a34a" rx="1"/>
<rect x="468.0" y="388.1" width="3.0" height="146.8" fill="#9333ea" rx="1"/>
<rect x="487.5" y="365.9" width="3.0" height="169.1" fill="#2563eb" rx="1"/>
<rect x="492.5" y="369.8" width="3.0" height="165.2" fill="#dc2626" rx="1"/>
<rect x="497.5" y="387.6" width="3.0" height="147.4" fill="#16a34a" rx="1"/>
<rect x="502.5" y="358.7" width="3.0" height="176.3" fill="#9333ea" rx="1"/>
<rect x="522.0" y="429.9" width="3.0" height="105.1" fill="#2563eb" rx="1"/>
<rect x="527.0" y="385.9" width="3.0" height="149.1" fill="#dc2626" rx="1"/>
<rect x="532.0" y="375.4" width="3.0" height="159.6" fill="#16a34a" rx="1"/>
<rect x="537.0" y="365.9" width="3.0" height="169.1" fill="#9333ea" rx="1"/>
<rect x="556.5" y="468.8" width="3.0" height="66.2" fill="#2563eb" rx="1"/>
<rect x="561.5" y="444.3" width="3.0" height="90.7" fill="#dc2626" rx="1"/>
<rect x="566.5" y="343.6" width="3.0" height="191.3" fill="#16a34a" rx="1"/>
<rect x="571.5" y="444.9" width="3.0" height="90.1" fill="#9333ea" rx="1"/>
<rect x="591.0" y="477.1" width="3.0" height="57.9" fill="#2563eb" rx="1"/>
<rect x="596.0" y="463.2" width="3.0" height="71.8" fill="#dc2626" rx="1"/>
<rect x="601.0" y="369.2" width="3.0" height="165.8" fill="#16a34a" rx="1"/>
<rect x="606.0" y="453.8" width="3.0" height="81.2" fill="#9333ea" rx="1"/>
<rect x="625.5" y="458.2" width="3.0" height="76.8" fill="#2563eb" rx="1"/>
<rect x="630.5" y="480.5" width="3.0" height="54.5" fill="#dc2626" rx="1"/>
<rect x="635.5" y="455.5" width="3.0" height="79.5" fill="#16a34a" rx="1"/>
<rect x="640.5" y="454.9" width="3.0" height="80.1" fill="#9333ea" rx="1"/>
<rect x="660.0" y="510.0" width="3.0" height="25.0" fill="#2563eb" rx="1"/>
<rect x="665.0" y="519.4" width="3.0" height="15.6" fill="#dc2626" rx="1"/>
<rect x="670.0" y="498.8" width="3.0" height="36.2" fill="#16a34a" rx="1"/>
<rect x="675.0" y="479.9" width="3.0" height="55.1" fill="#9333ea" rx="1"/>
<rect x="694.5" y="528.3" width="3.0" height="6.7" fill="#2563eb" rx="1"/>
<rect x="699.5" y="519.4" width="3.0" height="15.6" fill="#dc2626" rx="1"/>
<rect x="704.5" y="500.5" width="3.0" height="34.5" fill="#16a34a" rx="1"/>
<rect x="709.5" y="514.4" width="3.0" height="20.6" fill="#9333ea" rx="1"/>
<rect x="729.0" y="520.5" width="3.0" height="14.5" fill="#2563eb" rx="1"/>
<rect x="734.0" y="514.4" width="3.0" height="20.6" fill="#dc2626" rx="1"/>
<rect x="739.0" y="521.6" width="3.0" height="13.3" fill="#16a34a" rx="1"/>
<rect x="744.0" y="527.8" width="3.0" height="7.2" fill="#9333ea" rx="1"/>
<rect x="763.5" y="497.2" width="3.0" height="37.8" fill="#2563eb" rx="1"/>
<rect x="768.5" y="451.6" width="3.0" height="83.4" fill="#dc2626" rx="1"/>
<rect x="773.5" y="516.1" width="3.0" height="18.9" fill="#16a34a" rx="1"/>
<rect x="778.5" y="523.9" width="3.0" height="11.1" fill="#9333ea" rx="1"/>
<rect x="798.0" y="500.5" width="3.0" height="34.5" fill="#2563eb" rx="1"/>
<rect x="803.0" y="421.5" width="3.0" height="113.5" fill="#dc2626" rx="1"/>
<rect x="808.0" y="489.4" width="3.0" height="45.6" fill="#16a34a" rx="1"/>
<rect x="813.0" y="509.4" width="3.0" height="25.6" fill="#9333ea" rx="1"/>
<rect x="832.5" y="466.6" width="3.0" height="68.4" fill="#2563eb" rx="1"/>
<rect x="837.5" y="408.2" width="3.0" height="126.8" fill="#dc2626" rx="1"/>
<rect x="842.5" y="374.8" width="3.0" height="160.2" fill="#16a34a" rx="1"/>
<rect x="847.5" y="375.4" width="3.0" height="159.6" fill="#9333ea" rx="1"/>
<rect x="867.0" y="447.7" width="3.0" height="87.3" fill="#2563eb" rx="1"/>
<rect x="872.0" y="364.2" width="3.0" height="170.8" fill="#dc2626" rx="1"/>
<rect x="877.0" y="370.4" width="3.0" height="164.7" fill="#16a34a" rx="1"/>
<rect x="882.0" y="211.8" width="3.0" height="323.2" fill="#9333ea" rx="1"/>
<rect x="901.5" y="394.8" width="3.0" height="140.2" fill="#2563eb" rx="1"/>
<rect x="906.5" y="418.2" width="3.0" height="116.8" fill="#dc2626" rx="1"/>
<rect x="911.5" y="422.1" width="3.0" height="112.9" fill="#16a34a" rx="1"/>
<rect x="916.5" y="154.0" width="3.0" height="381.0" fill="#9333ea" rx="1"/>
<rect x="936.0" y="413.2" width="3.0" height="121.8" fill="#2563eb" rx="1"/>
<rect x="941.0" y="390.4" width="3.0" height="144.6" fill="#dc2626" rx="1"/>
<rect x="946.0" y="416.0" width="3.0" height="119.0" fill="#16a34a" rx="1"/>
<rect x="951.0" y="337.5" width="3.0" height="197.5" fill="#9333ea" rx="1"/>
<rect x="970.5" y="433.8" width="3.0" height="101.2" fill="#2563eb" rx="1"/>
<rect x="975.5" y="182.3" width="3.0" height="352.7" fill="#dc2626" rx="1"/>
<rect x="980.5" y="264.1" width="3.0" height="270.9" fill="#16a34a" rx="1"/>
<rect x="985.5" y="387.0" width="3.0" height="148.0" fill="#9333ea" rx="1"/>
<rect x="1005.0" y="462.7" width="3.0" height="72.3" fill="#2563eb" rx="1"/>
<rect x="1010.0" y="352.0" width="3.0" height="183.0" fill="#dc2626" rx="1"/>
<rect x="1015.0" y="403.7" width="3.0" height="131.3" fill="#16a34a" rx="1"/>
<rect x="1020.0" y="494.9" width="3.0" height="40.0" fill="#9333ea" rx="1"/>
<rect x="1039.5" y="360.3" width="3.0" height="174.7" fill="#2563eb" rx="1"/>
<rect x="1044.5" y="531.1" width="3.0" height="3.9" fill="#dc2626" rx="1"/>
<rect x="1049.5" y="338.6" width="3.0" height="196.4" fill="#16a34a" rx="1"/>
<rect x="1054.5" y="521.6" width="3.0" height="13.3" fill="#9333ea" rx="1"/>
<rect x="1074.0" y="159.5" width="3.0" height="375.5" fill="#2563eb" rx="1"/>
<rect x="1079.0" y="535.0" width="3.0" height="0.0" fill="#dc2626" rx="1"/>
<rect x="1084.0" y="459.9" width="3.0" height="75.1" fill="#16a34a" rx="1"/>
<rect x="1089.0" y="533.3" width="3.0" height="1.7" fill="#9333ea" rx="1"/>
<rect x="1108.5" y="474.9" width="3.0" height="60.1" fill="#2563eb" rx="1"/>
<rect x="1113.5" y="535.0" width="3.0" height="0.0" fill="#dc2626" rx="1"/>
<rect x="1118.5" y="532.8" width="3.0" height="2.2" fill="#16a34a" rx="1"/>
<rect x="1123.5" y="535.0" width="3.0" height="0.0" fill="#9333ea" rx="1"/>
<rect x="100" y="582" width="16" height="16" fill="#2563eb" rx="2"/>
<text class="legend" x="124" y="595">Baseline</text>
<rect x="330" y="582" width="16" height="16" fill="#dc2626" rx="2"/>
<text class="legend" x="354" y="595">No MUL fwd</text>
<rect x="560" y="582" width="16" height="16" fill="#16a34a" rx="2"/>
<text class="legend" x="584" y="595">No ALU fwd</text>
<rect x="790" y="582" width="16" height="16" fill="#9333ea" rx="2"/>
<text class="legend" x="814" y="595">No ALU+MUL fwd</text>
</svg>
