<svg xmlns="http://www.w3.org/2000/svg" width="1100" height="700" viewBox="0 0 1100 700">
<rect width="100%" height="100%" fill="#ffffff"/>
<style>text{font-family:Inter,Arial,sans-serif;fill:#111827}.title{font-size:28px;font-weight:700}.subtitle{font-size:14px;fill:#4b5563}.axis{font-size:13px;fill:#374151}.tick{font-size:11px;fill:#6b7280}.grid{stroke:#e5e7eb}.axisline{stroke:#374151;stroke-width:1.5}.legend{font-size:14px}</style>
<text class="title" x="550.0" y="38" text-anchor="middle">Datapath Delay Histogram</text>
<text class="subtitle" x="550.0" y="62" text-anchor="middle">Parsed from reports/*/timing_paths.csv</text>
<line class="grid" x1="90" y1="520.0" x2="1060" y2="520.0"/>
<text class="tick" x="82" y="524.0" text-anchor="end">0</text>
<line class="grid" x1="90" y1="433.0" x2="1060" y2="433.0"/>
<text class="tick" x="82" y="437.0" text-anchor="end">171</text>
<line class="grid" x1="90" y1="346.0" x2="1060" y2="346.0"/>
<text class="tick" x="82" y="350.0" text-anchor="end">342</text>
<line class="grid" x1="90" y1="259.0" x2="1060" y2="259.0"/>
<text class="tick" x="82" y="263.0" text-anchor="end">514</text>
<line class="grid" x1="90" y1="172.0" x2="1060" y2="172.0"/>
<text class="tick" x="82" y="176.0" text-anchor="end">685</text>
<line class="grid" x1="90" y1="85.0" x2="1060" y2="85.0"/>
<text class="tick" x="82" y="89.0" text-anchor="end">856</text>
<line class="axisline" x1="90" y1="85" x2="90" y2="520"/>
<line class="axisline" x1="90" y1="520" x2="1060" y2="520"/>
<text class="axis" x="22" y="302.5" transform="rotate(-90 22 302.5)" text-anchor="middle">Path count</text>
<text class="axis" x="575.0" y="675" text-anchor="middle">Datapath delay (ns)</text>
<text class="tick" x="110.2" y="558.0" text-anchor="end" transform="rotate(-45 110.2 558.0)">1.08</text>
<rect x="98.0" y="508.3" width="4.1" height="11.7" fill="#2563eb" rx="1"/>
<rect x="104.1" y="503.7" width="4.1" height="16.3" fill="#dc2626" rx="1"/>
<rect x="110.2" y="502.7" width="4.1" height="17.3" fill="#16a34a" rx="1"/>
<rect x="116.3" y="502.2" width="4.1" height="17.8" fill="#9333ea" rx="1"/>
<text class="tick" x="150.6" y="558.0" text-anchor="end" transform="rotate(-45 150.6 558.0)">1.66</text>
<rect x="138.4" y="508.3" width="4.1" height="11.7" fill="#2563eb" rx="1"/>
<rect x="144.5" y="509.3" width="4.1" height="10.7" fill="#dc2626" rx="1"/>
<rect x="150.6" y="507.8" width="4.1" height="12.2" fill="#16a34a" rx="1"/>
<rect x="156.7" y="509.3" width="4.1" height="10.7" fill="#9333ea" rx="1"/>
<text class="tick" x="191.0" y="558.0" text-anchor="end" transform="rotate(-45 191.0 558.0)">2.25</text>
<rect x="178.8" y="518.0" width="4.1" height="2.0" fill="#2563eb" rx="1"/>
<rect x="184.9" y="512.9" width="4.1" height="7.1" fill="#dc2626" rx="1"/>
<rect x="191.0" y="507.3" width="4.1" height="12.7" fill="#16a34a" rx="1"/>
<rect x="197.1" y="509.3" width="4.1" height="10.7" fill="#9333ea" rx="1"/>
<text class="tick" x="231.5" y="558.0" text-anchor="end" transform="rotate(-45 231.5 558.0)">2.84</text>
<rect x="219.2" y="516.4" width="4.1" height="3.6" fill="#2563eb" rx="1"/>
<rect x="225.4" y="508.8" width="4.1" height="11.2" fill="#dc2626" rx="1"/>
<rect x="231.5" y="507.8" width="4.1" height="12.2" fill="#16a34a" rx="1"/>
<rect x="237.6" y="512.4" width="4.1" height="7.6" fill="#9333ea" rx="1"/>
<text class="tick" x="271.9" y="558.0" text-anchor="end" transform="rotate(-45 271.9 558.0)">3.42</text>
<rect x="259.7" y="487.0" width="4.1" height="33.0" fill="#2563eb" rx="1"/>
<rect x="265.8" y="510.3" width="4.1" height="9.7" fill="#dc2626" rx="1"/>
<rect x="271.9" y="488.0" width="4.1" height="32.0" fill="#16a34a" rx="1"/>
<rect x="278.0" y="501.7" width="4.1" height="18.3" fill="#9333ea" rx="1"/>
<text class="tick" x="312.3" y="558.0" text-anchor="end" transform="rotate(-45 312.3 558.0)">4.01</text>
<rect x="300.1" y="454.4" width="4.1" height="65.6" fill="#2563eb" rx="1"/>
<rect x="306.2" y="458.5" width="4.1" height="61.5" fill="#dc2626" rx="1"/>
<rect x="312.3" y="510.3" width="4.1" height="9.7" fill="#16a34a" rx="1"/>
<rect x="318.4" y="486.0" width="4.1" height="34.0" fill="#9333ea" rx="1"/>
<text class="tick" x="352.7" y="558.0" text-anchor="end" transform="rotate(-45 352.7 558.0)">4.60</text>
<rect x="340.5" y="387.4" width="4.1" height="132.6" fill="#2563eb" rx="1"/>
<rect x="346.6" y="406.7" width="4.1" height="113.3" fill="#dc2626" rx="1"/>
<rect x="352.7" y="491.5" width="4.1" height="28.5" fill="#16a34a" rx="1"/>
<rect x="358.8" y="465.1" width="4.1" height="54.9" fill="#9333ea" rx="1"/>
<text class="tick" x="393.1" y="558.0" text-anchor="end" transform="rotate(-45 393.1 558.0)">5.18</text>
<rect x="380.9" y="324.9" width="4.1" height="195.1" fill="#2563eb" rx="1"/>
<rect x="387.0" y="322.3" width="4.1" height="197.7" fill="#dc2626" rx="1"/>
<rect x="393.1" y="447.8" width="4.1" height="72.2" fill="#16a34a" rx="1"/>
<rect x="399.2" y="348.7" width="4.1" height="171.3" fill="#9333ea" rx="1"/>
<text class="tick" x="433.5" y="558.0" text-anchor="end" transform="rotate(-45 433.5 558.0)">5.77</text>
<rect x="421.3" y="345.7" width="4.1" height="174.3" fill="#2563eb" rx="1"/>
<rect x="427.4" y="350.8" width="4.1" height="169.2" fill="#dc2626" rx="1"/>
<rect x="433.5" y="364.0" width="4.1" height="156.0" fill="#16a34a" rx="1"/>
<rect x="439.6" y="336.0" width="4.1" height="184.0" fill="#9333ea" rx="1"/>
<text class="tick" x="474.0" y="558.0" text-anchor="end" transform="rotate(-45 474.0 558.0)">6.36</text>
<rect x="461.8" y="416.8" width="4.1" height="103.2" fill="#2563eb" rx="1"/>
<rect x="467.9" y="360.9" width="4.1" height="159.1" fill="#dc2626" rx="1"/>
<rect x="474.0" y="335.0" width="4.1" height="185.0" fill="#16a34a" rx="1"/>
<rect x="480.1" y="351.3" width="4.1" height="168.7" fill="#9333ea" rx="1"/>
<text class="tick" x="514.4" y="558.0" text-anchor="end" transform="rotate(-45 514.4 558.0)">6.95</text>
<rect x="502.2" y="448.9" width="4.1" height="71.1" fill="#2563eb" rx="1"/>
<rect x="508.3" y="448.9" width="4.1" height="71.1" fill="#dc2626" rx="1"/>
<rect x="514.4" y="315.2" width="4.1" height="204.8" fill="#16a34a" rx="1"/>
<rect x="520.5" y="434.6" width="4.1" height="85.4" fill="#9333ea" rx="1"/>
<text class="tick" x="554.8" y="558.0" text-anchor="end" transform="rotate(-45 554.8 558.0)">7.53</text>
<rect x="542.6" y="440.2" width="4.1" height="79.8" fill="#2563eb" rx="1"/>
<rect x="548.7" y="436.7" width="4.1" height="83.3" fill="#dc2626" rx="1"/>
<rect x="554.8" y="397.0" width="4.1" height="123.0" fill="#16a34a" rx="1"/>
<rect x="560.9" y="434.6" width="4.1" height="85.4" fill="#9333ea" rx="1"/>
<text class="tick" x="595.2" y="558.0" text-anchor="end" transform="rotate(-45 595.2 558.0)">8.12</text>
<rect x="583.0" y="484.9" width="4.1" height="35.1" fill="#2563eb" rx="1"/>
<rect x="589.1" y="501.7" width="4.1" height="18.3" fill="#dc2626" rx="1"/>
<rect x="595.2" y="474.8" width="4.1" height="45.2" fill="#16a34a" rx="1"/>
<rect x="601.3" y="446.3" width="4.1" height="73.7" fill="#9333ea" rx="1"/>
<text class="tick" x="635.6" y="558.0" text-anchor="end" transform="rotate(-45 635.6 558.0)">8.71</text>
<rect x="623.4" y="512.4" width="4.1" height="7.6" fill="#2563eb" rx="1"/>
<rect x="629.5" y="504.2" width="4.1" height="15.8" fill="#dc2626" rx="1"/>
<rect x="635.6" y="485.4" width="4.1" height="34.6" fill="#16a34a" rx="1"/>
<rect x="641.7" y="499.2" width="4.1" height="20.8" fill="#9333ea" rx="1"/>
<text class="tick" x="676.0" y="558.0" text-anchor="end" transform="rotate(-45 676.0 558.0)">9.29</text>
<rect x="663.8" y="499.7" width="4.1" height="20.3" fill="#2563eb" rx="1"/>
<rect x="669.9" y="492.1" width="4.1" height="27.9" fill="#dc2626" rx="1"/>
<rect x="676.0" y="504.8" width="4.1" height="15.2" fill="#16a34a" rx="1"/>
<rect x="682.1" y="510.9" width="4.1" height="9.1" fill="#9333ea" rx="1"/>
<text class="tick" x="716.5" y="558.0" text-anchor="end" transform="rotate(-45 716.5 558.0)">9.88</text>
<rect x="704.2" y="476.8" width="4.1" height="43.2" fill="#2563eb" rx="1"/>
<rect x="710.4" y="417.9" width="4.1" height="102.1" fill="#dc2626" rx="1"/>
<rect x="716.5" y="492.6" width="4.1" height="27.4" fill="#16a34a" rx="1"/>
<rect x="722.6" y="505.3" width="4.1" height="14.7" fill="#9333ea" rx="1"/>
<text class="tick" x="756.9" y="558.0" text-anchor="end" transform="rotate(-45 756.9 558.0)">10.47</text>
<rect x="744.7" y="474.8" width="4.1" height="45.2" fill="#2563eb" rx="1"/>
<rect x="750.8" y="387.9" width="4.1" height="132.1" fill="#dc2626" rx="1"/>
<rect x="756.9" y="401.6" width="4.1" height="118.4" fill="#16a34a" rx="1"/>
<rect x="763.0" y="452.9" width="4.1" height="67.1" fill="#9333ea" rx="1"/>
<text class="tick" x="797.3" y="558.0" text-anchor="end" transform="rotate(-45 797.3 558.0)">11.06</text>
<rect x="785.1" y="435.1" width="4.1" height="84.9" fill="#2563eb" rx="1"/>
<rect x="791.2" y="359.4" width="4.1" height="160.6" fill="#dc2626" rx="1"/>
<rect x="797.3" y="359.9" width="4.1" height="160.1" fill="#16a34a" rx="1"/>
<rect x="803.4" y="251.7" width="4.1" height="268.3" fill="#9333ea" rx="1"/>
<text class="tick" x="837.7" y="558.0" text-anchor="end" transform="rotate(-45 837.7 558.0)">11.64</text>
<rect x="825.5" y="374.7" width="4.1" height="145.3" fill="#2563eb" rx="1"/>
<rect x="831.6" y="379.2" width="4.1" height="140.8" fill="#dc2626" rx="1"/>
<rect x="837.7" y="383.8" width="4.1" height="136.2" fill="#16a34a" rx="1"/>
<rect x="843.8" y="85.0" width="4.1" height="435.0" fill="#9333ea" rx="1"/>
<text class="tick" x="878.1" y="558.0" text-anchor="end" transform="rotate(-45 878.1 558.0)">12.23</text>
<rect x="865.9" y="396.0" width="4.1" height="124.0" fill="#2563eb" rx="1"/>
<rect x="872.0" y="360.4" width="4.1" height="159.6" fill="#dc2626" rx="1"/>
<rect x="878.1" y="386.9" width="4.1" height="133.1" fill="#16a34a" rx="1"/>
<rect x="884.2" y="295.4" width="4.1" height="224.6" fill="#9333ea" rx="1"/>
<text class="tick" x="918.5" y="558.0" text-anchor="end" transform="rotate(-45 918.5 558.0)">12.82</text>
<rect x="906.3" y="412.8" width="4.1" height="107.2" fill="#2563eb" rx="1"/>
<rect x="912.4" y="162.2" width="4.1" height="357.8" fill="#dc2626" rx="1"/>
<rect x="918.5" y="247.1" width="4.1" height="272.9" fill="#16a34a" rx="1"/>
<rect x="924.6" y="384.8" width="4.1" height="135.2" fill="#9333ea" rx="1"/>
<text class="tick" x="959.0" y="558.0" text-anchor="end" transform="rotate(-45 959.0 558.0)">13.40</text>
<rect x="946.8" y="413.3" width="4.1" height="106.7" fill="#2563eb" rx="1"/>
<rect x="952.9" y="398.5" width="4.1" height="121.5" fill="#dc2626" rx="1"/>
<rect x="959.0" y="378.2" width="4.1" height="141.8" fill="#16a34a" rx="1"/>
<rect x="965.1" y="486.5" width="4.1" height="33.5" fill="#9333ea" rx="1"/>
<text class="tick" x="999.4" y="558.0" text-anchor="end" transform="rotate(-45 999.4 558.0)">13.99</text>
<rect x="987.2" y="231.9" width="4.1" height="288.1" fill="#2563eb" rx="1"/>
<rect x="993.3" y="520.0" width="4.1" height="0.0" fill="#dc2626" rx="1"/>
<rect x="999.4" y="346.7" width="4.1" height="173.3" fill="#16a34a" rx="1"/>
<rect x="1005.5" y="512.4" width="4.1" height="7.6" fill="#9333ea" rx="1"/>
<text class="tick" x="1039.8" y="558.0" text-anchor="end" transform="rotate(-45 1039.8 558.0)">14.58</text>
<rect x="1027.6" y="308.1" width="4.1" height="211.9" fill="#2563eb" rx="1"/>
<rect x="1033.7" y="520.0" width="4.1" height="0.0" fill="#dc2626" rx="1"/>
<rect x="1039.8" y="501.2" width="4.1" height="18.8" fill="#16a34a" rx="1"/>
<rect x="1045.9" y="520.0" width="4.1" height="0.0" fill="#9333ea" rx="1"/>
<rect x="90" y="632" width="16" height="16" fill="#2563eb" rx="2"/>
<text class="legend" x="114" y="645">baseline</text>
<rect x="340" y="632" width="16" height="16" fill="#dc2626" rx="2"/>
<text class="legend" x="364" y="645">no-mul-forwarding</text>
<rect x="590" y="632" width="16" height="16" fill="#16a34a" rx="2"/>
<text class="legend" x="614" y="645">no-alu-forwarding</text>
<rect x="840" y="632" width="16" height="16" fill="#9333ea" rx="2"/>
<text class="legend" x="864" y="645">no-alu-mul-forwarding</text>
</svg>
