<svg xmlns="http://www.w3.org/2000/svg" width="1100" height="620" viewBox="0 0 1100 620">
<rect width="100%" height="100%" fill="#ffffff"/>
<style>text{font-family:Inter,Arial,sans-serif;fill:#111827}.title{font-size:28px;font-weight:700}.subtitle{font-size:14px;fill:#4b5563}.axis{font-size:13px;fill:#374151}.tick{font-size:11px;fill:#6b7280}.grid{stroke:#e5e7eb}.axisline{stroke:#374151;stroke-width:1.5}.legend{font-size:14px}</style>
<text class="title" x="550.0" y="38" text-anchor="middle">Datapath Delay Histogram</text>
<text class="subtitle" x="550.0" y="62" text-anchor="middle">Parsed from reports/*/timing_paths.csv</text>
<line class="grid" x1="90" y1="515.0" x2="1060" y2="515.0"/>
<text class="tick" x="82" y="519.0" text-anchor="end">0</text>
<line class="grid" x1="90" y1="429.0" x2="1060" y2="429.0"/>
<text class="tick" x="82" y="433.0" text-anchor="end">212</text>
<line class="grid" x1="90" y1="343.0" x2="1060" y2="343.0"/>
<text class="tick" x="82" y="347.0" text-anchor="end">423</text>
<line class="grid" x1="90" y1="257.0" x2="1060" y2="257.0"/>
<text class="tick" x="82" y="261.0" text-anchor="end">635</text>
<line class="grid" x1="90" y1="171.0" x2="1060" y2="171.0"/>
<text class="tick" x="82" y="175.0" text-anchor="end">846</text>
<line class="grid" x1="90" y1="85.0" x2="1060" y2="85.0"/>
<text class="tick" x="82" y="89.0" text-anchor="end">1058</text>
<line class="axisline" x1="90" y1="85" x2="90" y2="515"/>
<line class="axisline" x1="90" y1="515" x2="1060" y2="515"/>
<text class="axis" x="22" y="300.0" transform="rotate(-90 22 300.0)" text-anchor="middle">Path count</text>
<text class="axis" x="575.0" y="595" text-anchor="middle">Datapath delay (ns)</text>
<text class="tick" x="110.2" y="537" text-anchor="middle">0.81</text>
<rect x="94.0" y="468.3" width="14.2" height="46.7" fill="#2563eb" rx="1"/>
<rect x="110.2" y="468.3" width="14.2" height="46.7" fill="#dc2626" rx="1"/>
<rect x="134.4" y="85.0" width="14.2" height="430.0" fill="#2563eb" rx="1"/>
<rect x="150.6" y="85.0" width="14.2" height="430.0" fill="#dc2626" rx="1"/>
<rect x="174.8" y="495.5" width="14.2" height="19.5" fill="#2563eb" rx="1"/>
<rect x="191.0" y="495.5" width="14.2" height="19.5" fill="#dc2626" rx="1"/>
<text class="tick" x="231.5" y="537" text-anchor="middle">2.49</text>
<rect x="215.2" y="481.7" width="14.2" height="33.3" fill="#2563eb" rx="1"/>
<rect x="231.5" y="481.7" width="14.2" height="33.3" fill="#dc2626" rx="1"/>
<rect x="255.7" y="411.8" width="14.2" height="103.2" fill="#2563eb" rx="1"/>
<rect x="271.9" y="411.8" width="14.2" height="103.2" fill="#dc2626" rx="1"/>
<rect x="296.1" y="482.5" width="14.2" height="32.5" fill="#2563eb" rx="1"/>
<rect x="312.3" y="482.5" width="14.2" height="32.5" fill="#dc2626" rx="1"/>
<text class="tick" x="352.7" y="537" text-anchor="middle">4.16</text>
<rect x="336.5" y="426.8" width="14.2" height="88.2" fill="#2563eb" rx="1"/>
<rect x="352.7" y="426.8" width="14.2" height="88.2" fill="#dc2626" rx="1"/>
<rect x="376.9" y="483.7" width="14.2" height="31.3" fill="#2563eb" rx="1"/>
<rect x="393.1" y="483.7" width="14.2" height="31.3" fill="#dc2626" rx="1"/>
<rect x="417.3" y="514.6" width="14.2" height="0.4" fill="#2563eb" rx="1"/>
<rect x="433.5" y="514.6" width="14.2" height="0.4" fill="#dc2626" rx="1"/>
<text class="tick" x="474.0" y="537" text-anchor="middle">5.84</text>
<rect x="457.8" y="514.2" width="14.2" height="0.8" fill="#2563eb" rx="1"/>
<rect x="474.0" y="514.2" width="14.2" height="0.8" fill="#dc2626" rx="1"/>
<rect x="498.2" y="510.9" width="14.2" height="4.1" fill="#2563eb" rx="1"/>
<rect x="514.4" y="510.9" width="14.2" height="4.1" fill="#dc2626" rx="1"/>
<rect x="538.6" y="482.5" width="14.2" height="32.5" fill="#2563eb" rx="1"/>
<rect x="554.8" y="482.5" width="14.2" height="32.5" fill="#dc2626" rx="1"/>
<text class="tick" x="595.2" y="537" text-anchor="middle">7.52</text>
<rect x="579.0" y="493.9" width="14.2" height="21.1" fill="#2563eb" rx="1"/>
<rect x="595.2" y="493.9" width="14.2" height="21.1" fill="#dc2626" rx="1"/>
<rect x="619.4" y="420.7" width="14.2" height="94.3" fill="#2563eb" rx="1"/>
<rect x="635.6" y="420.7" width="14.2" height="94.3" fill="#dc2626" rx="1"/>
<rect x="659.8" y="363.8" width="14.2" height="151.2" fill="#2563eb" rx="1"/>
<rect x="676.0" y="363.8" width="14.2" height="151.2" fill="#dc2626" rx="1"/>
<text class="tick" x="716.5" y="537" text-anchor="middle">9.19</text>
<rect x="700.2" y="382.9" width="14.2" height="132.1" fill="#2563eb" rx="1"/>
<rect x="716.5" y="382.9" width="14.2" height="132.1" fill="#dc2626" rx="1"/>
<rect x="740.7" y="488.6" width="14.2" height="26.4" fill="#2563eb" rx="1"/>
<rect x="756.9" y="488.6" width="14.2" height="26.4" fill="#dc2626" rx="1"/>
<rect x="781.1" y="511.3" width="14.2" height="3.7" fill="#2563eb" rx="1"/>
<rect x="797.3" y="511.3" width="14.2" height="3.7" fill="#dc2626" rx="1"/>
<text class="tick" x="837.7" y="537" text-anchor="middle">10.87</text>
<rect x="821.5" y="514.6" width="14.2" height="0.4" fill="#2563eb" rx="1"/>
<rect x="837.7" y="514.6" width="14.2" height="0.4" fill="#dc2626" rx="1"/>
<rect x="861.9" y="515.0" width="14.2" height="0.0" fill="#2563eb" rx="1"/>
<rect x="878.1" y="515.0" width="14.2" height="0.0" fill="#dc2626" rx="1"/>
<rect x="902.3" y="513.0" width="14.2" height="2.0" fill="#2563eb" rx="1"/>
<rect x="918.5" y="513.0" width="14.2" height="2.0" fill="#dc2626" rx="1"/>
<text class="tick" x="959.0" y="537" text-anchor="middle">12.54</text>
<rect x="942.8" y="505.7" width="14.2" height="9.3" fill="#2563eb" rx="1"/>
<rect x="959.0" y="505.7" width="14.2" height="9.3" fill="#dc2626" rx="1"/>
<rect x="983.2" y="498.3" width="14.2" height="16.7" fill="#2563eb" rx="1"/>
<rect x="999.4" y="498.3" width="14.2" height="16.7" fill="#dc2626" rx="1"/>
<rect x="1023.6" y="452.0" width="14.2" height="63.0" fill="#2563eb" rx="1"/>
<rect x="1039.8" y="452.0" width="14.2" height="63.0" fill="#dc2626" rx="1"/>
<rect x="90" y="552" width="16" height="16" fill="#2563eb" rx="2"/>
<text class="legend" x="114" y="565">baseline</text>
<rect x="340" y="552" width="16" height="16" fill="#dc2626" rx="2"/>
<text class="legend" x="364" y="565">no-mul-forwarding</text>
</svg>
