<svg xmlns="http://www.w3.org/2000/svg" width="1100" height="620" viewBox="0 0 1100 620">
<rect width="100%" height="100%" fill="#ffffff"/>
<style>text{font-family:Inter,Arial,sans-serif;fill:#111827}.title{font-size:28px;font-weight:700}.subtitle{font-size:14px;fill:#4b5563}.axis{font-size:13px;fill:#374151}.tick{font-size:11px;fill:#6b7280}.grid{stroke:#e5e7eb}.axisline{stroke:#374151;stroke-width:1.5}.legend{font-size:14px}</style>
<text class="title" x="550.0" y="38" text-anchor="middle">Datapath Delay Histogram</text>
<text class="subtitle" x="550.0" y="62" text-anchor="middle">Parsed from reports/*/timing_paths.csv</text>
<line class="grid" x1="90" y1="515.0" x2="1060" y2="515.0"/>
<text class="tick" x="82" y="519.0" text-anchor="end">0</text>
<line class="grid" x1="90" y1="429.0" x2="1060" y2="429.0"/>
<text class="tick" x="82" y="433.0" text-anchor="end">250</text>
<line class="grid" x1="90" y1="343.0" x2="1060" y2="343.0"/>
<text class="tick" x="82" y="347.0" text-anchor="end">499</text>
<line class="grid" x1="90" y1="257.0" x2="1060" y2="257.0"/>
<text class="tick" x="82" y="261.0" text-anchor="end">749</text>
<line class="grid" x1="90" y1="171.0" x2="1060" y2="171.0"/>
<text class="tick" x="82" y="175.0" text-anchor="end">998</text>
<line class="grid" x1="90" y1="85.0" x2="1060" y2="85.0"/>
<text class="tick" x="82" y="89.0" text-anchor="end">1248</text>
<line class="axisline" x1="90" y1="85" x2="90" y2="515"/>
<line class="axisline" x1="90" y1="515" x2="1060" y2="515"/>
<text class="axis" x="22" y="300.0" transform="rotate(-90 22 300.0)" text-anchor="middle">Path count</text>
<text class="axis" x="575.0" y="595" text-anchor="middle">Datapath delay (ns)</text>
<text class="tick" x="110.2" y="537" text-anchor="middle">0.81</text>
<rect x="94.0" y="497.4" width="14.2" height="17.6" fill="#2563eb" rx="1"/>
<rect x="110.2" y="495.7" width="14.2" height="19.3" fill="#dc2626" rx="1"/>
<rect x="134.4" y="502.9" width="14.2" height="12.1" fill="#2563eb" rx="1"/>
<rect x="150.6" y="502.9" width="14.2" height="12.1" fill="#dc2626" rx="1"/>
<rect x="174.8" y="498.5" width="14.2" height="16.5" fill="#2563eb" rx="1"/>
<rect x="191.0" y="497.8" width="14.2" height="17.2" fill="#dc2626" rx="1"/>
<text class="tick" x="231.5" y="537" text-anchor="middle">2.51</text>
<rect x="215.2" y="145.0" width="14.2" height="370.0" fill="#2563eb" rx="1"/>
<rect x="231.5" y="488.1" width="14.2" height="26.9" fill="#dc2626" rx="1"/>
<rect x="255.7" y="427.5" width="14.2" height="87.5" fill="#2563eb" rx="1"/>
<rect x="271.9" y="85.0" width="14.2" height="430.0" fill="#dc2626" rx="1"/>
<rect x="296.1" y="486.7" width="14.2" height="28.3" fill="#2563eb" rx="1"/>
<rect x="312.3" y="486.1" width="14.2" height="28.9" fill="#dc2626" rx="1"/>
<text class="tick" x="352.7" y="537" text-anchor="middle">4.21</text>
<rect x="336.5" y="440.9" width="14.2" height="74.1" fill="#2563eb" rx="1"/>
<rect x="352.7" y="429.2" width="14.2" height="85.8" fill="#dc2626" rx="1"/>
<rect x="376.9" y="499.5" width="14.2" height="15.5" fill="#2563eb" rx="1"/>
<rect x="393.1" y="498.8" width="14.2" height="16.2" fill="#dc2626" rx="1"/>
<rect x="417.3" y="514.3" width="14.2" height="0.7" fill="#2563eb" rx="1"/>
<rect x="433.5" y="514.3" width="14.2" height="0.7" fill="#dc2626" rx="1"/>
<text class="tick" x="474.0" y="537" text-anchor="middle">5.91</text>
<rect x="457.8" y="514.7" width="14.2" height="0.3" fill="#2563eb" rx="1"/>
<rect x="474.0" y="514.7" width="14.2" height="0.3" fill="#dc2626" rx="1"/>
<rect x="498.2" y="509.5" width="14.2" height="5.5" fill="#2563eb" rx="1"/>
<rect x="514.4" y="509.5" width="14.2" height="5.5" fill="#dc2626" rx="1"/>
<rect x="538.6" y="488.5" width="14.2" height="26.5" fill="#2563eb" rx="1"/>
<rect x="554.8" y="487.4" width="14.2" height="27.6" fill="#dc2626" rx="1"/>
<text class="tick" x="595.2" y="537" text-anchor="middle">7.60</text>
<rect x="579.0" y="494.7" width="14.2" height="20.3" fill="#2563eb" rx="1"/>
<rect x="595.2" y="485.7" width="14.2" height="29.3" fill="#dc2626" rx="1"/>
<rect x="619.4" y="435.4" width="14.2" height="79.6" fill="#2563eb" rx="1"/>
<rect x="635.6" y="422.7" width="14.2" height="92.3" fill="#dc2626" rx="1"/>
<rect x="659.8" y="385.8" width="14.2" height="129.2" fill="#2563eb" rx="1"/>
<rect x="676.0" y="335.5" width="14.2" height="179.5" fill="#dc2626" rx="1"/>
<text class="tick" x="716.5" y="537" text-anchor="middle">9.30</text>
<rect x="700.2" y="406.5" width="14.2" height="108.5" fill="#2563eb" rx="1"/>
<rect x="716.5" y="458.8" width="14.2" height="56.2" fill="#dc2626" rx="1"/>
<rect x="740.7" y="492.6" width="14.2" height="22.4" fill="#2563eb" rx="1"/>
<rect x="756.9" y="504.3" width="14.2" height="10.7" fill="#dc2626" rx="1"/>
<rect x="781.1" y="511.9" width="14.2" height="3.1" fill="#2563eb" rx="1"/>
<rect x="797.3" y="510.5" width="14.2" height="4.5" fill="#dc2626" rx="1"/>
<text class="tick" x="837.7" y="537" text-anchor="middle">11.00</text>
<rect x="821.5" y="514.7" width="14.2" height="0.3" fill="#2563eb" rx="1"/>
<rect x="837.7" y="513.6" width="14.2" height="1.4" fill="#dc2626" rx="1"/>
<rect x="861.9" y="515.0" width="14.2" height="0.0" fill="#2563eb" rx="1"/>
<rect x="878.1" y="512.2" width="14.2" height="2.8" fill="#dc2626" rx="1"/>
<rect x="902.3" y="504.3" width="14.2" height="10.7" fill="#2563eb" rx="1"/>
<rect x="918.5" y="416.5" width="14.2" height="98.5" fill="#dc2626" rx="1"/>
<text class="tick" x="959.0" y="537" text-anchor="middle">12.70</text>
<rect x="942.8" y="471.9" width="14.2" height="43.1" fill="#2563eb" rx="1"/>
<rect x="959.0" y="267.3" width="14.2" height="247.7" fill="#dc2626" rx="1"/>
<rect x="983.2" y="219.7" width="14.2" height="295.3" fill="#2563eb" rx="1"/>
<rect x="999.4" y="453.0" width="14.2" height="62.0" fill="#dc2626" rx="1"/>
<rect x="1023.6" y="456.1" width="14.2" height="58.9" fill="#2563eb" rx="1"/>
<rect x="1039.8" y="515.0" width="14.2" height="0.0" fill="#dc2626" rx="1"/>
<rect x="90" y="552" width="16" height="16" fill="#2563eb" rx="2"/>
<text class="legend" x="114" y="565">baseline</text>
<rect x="340" y="552" width="16" height="16" fill="#dc2626" rx="2"/>
<text class="legend" x="364" y="565">no-mul-forwarding</text>
</svg>
