<svg xmlns="http://www.w3.org/2000/svg" width="1100" height="650" viewBox="0 0 1100 650">
<rect width="100%" height="100%" fill="#ffffff"/>
<style>text{font-family:Inter,Arial,sans-serif;fill:#111827}.title{font-size:28px;font-weight:700}.subtitle{font-size:14px;fill:#4b5563}.axis{font-size:13px;fill:#374151}.tick{font-size:12px;fill:#6b7280}.label{font-size:12px;fill:#111827}.legend{font-size:14px}.grid{stroke:#e5e7eb;stroke-width:1}.axisline{stroke:#374151;stroke-width:1.5}</style>
<text class="title" x="550.0" y="38" text-anchor="middle">Vivado Power Comparison</text>
<text class="subtitle" x="550.0" y="62" text-anchor="middle">Summary power metrics parsed from reports/*/power.rpt</text>
<line class="grid" x1="110" y1="530.0" x2="1045" y2="530.0"/>
<text class="tick" x="100" y="534.0" text-anchor="end">0</text>
<line class="grid" x1="110" y1="442.0" x2="1045" y2="442.0"/>
<text class="tick" x="100" y="446.0" text-anchor="end">0.032</text>
<line class="grid" x1="110" y1="354.0" x2="1045" y2="354.0"/>
<text class="tick" x="100" y="358.0" text-anchor="end">0.064</text>
<line class="grid" x1="110" y1="266.0" x2="1045" y2="266.0"/>
<text class="tick" x="100" y="270.0" text-anchor="end">0.096</text>
<line class="grid" x1="110" y1="178.0" x2="1045" y2="178.0"/>
<text class="tick" x="100" y="182.0" text-anchor="end">0.128</text>
<line class="grid" x1="110" y1="90.0" x2="1045" y2="90.0"/>
<text class="tick" x="100" y="94.0" text-anchor="end">0.16</text>
<line class="axisline" x1="110" y1="90" x2="110" y2="530"/>
<line class="axisline" x1="110" y1="530" x2="1045" y2="530"/>
<text class="axis" x="30" y="310.0" text-anchor="middle" transform="rotate(-90 30 310.0)">Power (W)</text>
<text class="axis" x="265.8" y="566" text-anchor="middle">Total On-Chip</text>
<rect x="144.5" y="200.0" width="50.2" height="330.0" fill="#2563eb" rx="3"/>
<text class="label" x="169.6" y="193.0" text-anchor="middle">120.0 mW</text>
<rect x="208.7" y="197.3" width="50.2" height="332.7" fill="#dc2626" rx="3"/>
<text class="label" x="233.8" y="190.3" text-anchor="middle">121.0 mW</text>
<rect x="272.8" y="202.8" width="50.2" height="327.2" fill="#16a34a" rx="3"/>
<text class="label" x="297.9" y="195.8" text-anchor="middle">119.0 mW</text>
<rect x="337.0" y="202.8" width="50.2" height="327.2" fill="#9333ea" rx="3"/>
<text class="label" x="362.1" y="195.8" text-anchor="middle">119.0 mW</text>
<text class="axis" x="577.5" y="566" text-anchor="middle">Dynamic</text>
<rect x="456.2" y="491.5" width="50.2" height="38.5" fill="#2563eb" rx="3"/>
<text class="label" x="481.2" y="484.5" text-anchor="middle">14.0 mW</text>
<rect x="520.3" y="491.5" width="50.2" height="38.5" fill="#dc2626" rx="3"/>
<text class="label" x="545.4" y="484.5" text-anchor="middle">14.0 mW</text>
<rect x="584.5" y="497.0" width="50.2" height="33.0" fill="#16a34a" rx="3"/>
<text class="label" x="609.6" y="490.0" text-anchor="middle">12.0 mW</text>
<rect x="648.7" y="494.2" width="50.2" height="35.8" fill="#9333ea" rx="3"/>
<text class="label" x="673.8" y="487.2" text-anchor="middle">13.0 mW</text>
<text class="axis" x="889.2" y="566" text-anchor="middle">Static</text>
<rect x="767.8" y="238.5" width="50.2" height="291.5" fill="#2563eb" rx="3"/>
<text class="label" x="792.9" y="231.5" text-anchor="middle">106.0 mW</text>
<rect x="832.0" y="238.5" width="50.2" height="291.5" fill="#dc2626" rx="3"/>
<text class="label" x="857.1" y="231.5" text-anchor="middle">106.0 mW</text>
<rect x="896.2" y="238.5" width="50.2" height="291.5" fill="#16a34a" rx="3"/>
<text class="label" x="921.3" y="231.5" text-anchor="middle">106.0 mW</text>
<rect x="960.3" y="238.5" width="50.2" height="291.5" fill="#9333ea" rx="3"/>
<text class="label" x="985.4" y="231.5" text-anchor="middle">106.0 mW</text>
<rect x="110" y="589" width="16" height="16" fill="#2563eb" rx="2"/>
<text class="legend" x="134" y="602">baseline</text>
<rect x="370" y="589" width="16" height="16" fill="#dc2626" rx="2"/>
<text class="legend" x="394" y="602">no-mul-forwarding</text>
<rect x="630" y="589" width="16" height="16" fill="#16a34a" rx="2"/>
<text class="legend" x="654" y="602">no-alu-forwarding</text>
<rect x="890" y="589" width="16" height="16" fill="#9333ea" rx="2"/>
<text class="legend" x="914" y="602">no-alu-mul-forwarding</text>
</svg>
