<svg xmlns="http://www.w3.org/2000/svg" width="1180" height="670" viewBox="0 0 1180 670">
<rect width="100%" height="100%" fill="#ffffff"/>
<style>text{font-family:Inter,Arial,sans-serif;fill:#111827}.title{font-size:30px;font-weight:700}.subtitle{font-size:15px;fill:#4b5563}.axis{font-size:15px;font-weight:600;fill:#374151}.tick{font-size:13px;fill:#6b7280}.label{font-size:13px;fill:#111827}.legend{font-size:14px}.grid{stroke:#e5e7eb;stroke-width:1}.axisline{stroke:#374151;stroke-width:1.5}</style>
<text class="title" x="590.0" y="38" text-anchor="middle">Vivado Power Comparison</text>
<text class="subtitle" x="590.0" y="64" text-anchor="middle">Post-implementation report_power summary on Zynq-7020</text>
<line class="grid" x1="115" y1="545.0" x2="1120" y2="545.0"/>
<text class="tick" x="105" y="549.0" text-anchor="end">0</text>
<line class="grid" x1="115" y1="470.0" x2="1120" y2="470.0"/>
<text class="tick" x="105" y="474.0" text-anchor="end">25</text>
<line class="grid" x1="115" y1="395.0" x2="1120" y2="395.0"/>
<text class="tick" x="105" y="399.0" text-anchor="end">50</text>
<line class="grid" x1="115" y1="320.0" x2="1120" y2="320.0"/>
<text class="tick" x="105" y="324.0" text-anchor="end">75</text>
<line class="grid" x1="115" y1="245.0" x2="1120" y2="245.0"/>
<text class="tick" x="105" y="249.0" text-anchor="end">100</text>
<line class="grid" x1="115" y1="170.0" x2="1120" y2="170.0"/>
<text class="tick" x="105" y="174.0" text-anchor="end">125</text>
<line class="grid" x1="115" y1="95.0" x2="1120" y2="95.0"/>
<text class="tick" x="105" y="99.0" text-anchor="end">150</text>
<line class="axisline" x1="115" y1="95" x2="115" y2="545"/>
<line class="axisline" x1="115" y1="545" x2="1120" y2="545"/>
<text class="axis" x="30" y="320.0" text-anchor="middle" transform="rotate(-90 30 320.0)">Vivado power estimate (mW)</text>
<text class="axis" x="617.5" y="642" text-anchor="middle">Vivado report_power summary metric</text>
<text class="axis" x="282.5" y="576" text-anchor="middle">Total</text>
<text class="axis" x="282.5" y="594" text-anchor="middle">FPGA Power</text>
<rect x="149.5" y="185.0" width="56.0" height="360.0" fill="#2563eb" rx="3"/>
<text class="label" x="177.5" y="178.0" text-anchor="middle">120 mW</text>
<rect x="219.5" y="182.0" width="56.0" height="363.0" fill="#dc2626" rx="3"/>
<text class="label" x="247.5" y="175.0" text-anchor="middle">121 mW</text>
<rect x="289.5" y="188.0" width="56.0" height="357.0" fill="#16a34a" rx="3"/>
<text class="label" x="317.5" y="181.0" text-anchor="middle">119 mW</text>
<rect x="359.5" y="188.0" width="56.0" height="357.0" fill="#9333ea" rx="3"/>
<text class="label" x="387.5" y="181.0" text-anchor="middle">119 mW</text>
<text class="axis" x="617.5" y="576" text-anchor="middle">Dynamic</text>
<text class="axis" x="617.5" y="594" text-anchor="middle">Switching Power</text>
<rect x="484.5" y="503.0" width="56.0" height="42.0" fill="#2563eb" rx="3"/>
<text class="label" x="512.5" y="496.0" text-anchor="middle">14 mW</text>
<rect x="554.5" y="503.0" width="56.0" height="42.0" fill="#dc2626" rx="3"/>
<text class="label" x="582.5" y="496.0" text-anchor="middle">14 mW</text>
<rect x="624.5" y="509.0" width="56.0" height="36.0" fill="#16a34a" rx="3"/>
<text class="label" x="652.5" y="502.0" text-anchor="middle">12 mW</text>
<rect x="694.5" y="506.0" width="56.0" height="39.0" fill="#9333ea" rx="3"/>
<text class="label" x="722.5" y="499.0" text-anchor="middle">13 mW</text>
<text class="axis" x="952.5" y="576" text-anchor="middle">Static</text>
<text class="axis" x="952.5" y="594" text-anchor="middle">Leakage Power</text>
<rect x="819.5" y="227.0" width="56.0" height="318.0" fill="#2563eb" rx="3"/>
<text class="label" x="847.5" y="220.0" text-anchor="middle">106 mW</text>
<rect x="889.5" y="227.0" width="56.0" height="318.0" fill="#dc2626" rx="3"/>
<text class="label" x="917.5" y="220.0" text-anchor="middle">106 mW</text>
<rect x="959.5" y="227.0" width="56.0" height="318.0" fill="#16a34a" rx="3"/>
<text class="label" x="987.5" y="220.0" text-anchor="middle">106 mW</text>
<rect x="1029.5" y="227.0" width="56.0" height="318.0" fill="#9333ea" rx="3"/>
<text class="label" x="1057.5" y="220.0" text-anchor="middle">106 mW</text>
<rect x="115" y="609" width="16" height="16" fill="#2563eb" rx="2"/>
<text class="legend" x="139" y="622">Baseline</text>
<rect x="345" y="609" width="16" height="16" fill="#dc2626" rx="2"/>
<text class="legend" x="369" y="622">No MUL fwd</text>
<rect x="575" y="609" width="16" height="16" fill="#16a34a" rx="2"/>
<text class="legend" x="599" y="622">No ALU fwd</text>
<rect x="805" y="609" width="16" height="16" fill="#9333ea" rx="2"/>
<text class="legend" x="829" y="622">No ALU+MUL fwd</text>
</svg>
