<svg xmlns="http://www.w3.org/2000/svg" width="1100" height="620" viewBox="0 0 1100 620">
<rect width="100%" height="100%" fill="#ffffff"/>
<style>text{font-family:Inter,Arial,sans-serif;fill:#111827}.title{font-size:28px;font-weight:700}.subtitle{font-size:14px;fill:#4b5563}.axis{font-size:13px;fill:#374151}.tick{font-size:11px;fill:#6b7280}.grid{stroke:#e5e7eb}.axisline{stroke:#374151;stroke-width:1.5}.legend{font-size:14px}</style>
<text class="title" x="550.0" y="38" text-anchor="middle">Slack Histogram</text>
<text class="subtitle" x="550.0" y="62" text-anchor="middle">Parsed from reports/*/timing_paths.csv</text>
<line class="grid" x1="90" y1="515.0" x2="1060" y2="515.0"/>
<text class="tick" x="82" y="519.0" text-anchor="end">0</text>
<line class="grid" x1="90" y1="429.0" x2="1060" y2="429.0"/>
<text class="tick" x="82" y="433.0" text-anchor="end">119</text>
<line class="grid" x1="90" y1="343.0" x2="1060" y2="343.0"/>
<text class="tick" x="82" y="347.0" text-anchor="end">238</text>
<line class="grid" x1="90" y1="257.0" x2="1060" y2="257.0"/>
<text class="tick" x="82" y="261.0" text-anchor="end">358</text>
<line class="grid" x1="90" y1="171.0" x2="1060" y2="171.0"/>
<text class="tick" x="82" y="175.0" text-anchor="end">477</text>
<line class="grid" x1="90" y1="85.0" x2="1060" y2="85.0"/>
<text class="tick" x="82" y="89.0" text-anchor="end">596</text>
<line class="axisline" x1="90" y1="85" x2="90" y2="515"/>
<line class="axisline" x1="90" y1="515" x2="1060" y2="515"/>
<text class="axis" x="22" y="300.0" transform="rotate(-90 22 300.0)" text-anchor="middle">Path count</text>
<text class="axis" x="575.0" y="595" text-anchor="middle">Slack (ns)</text>
<text class="tick" x="110.2" y="537" text-anchor="middle">0.03</text>
<rect x="94.0" y="197.6" width="8.8" height="317.4" fill="#2563eb" rx="1"/>
<rect x="104.8" y="471.0" width="8.8" height="44.0" fill="#dc2626" rx="1"/>
<rect x="115.6" y="489.7" width="8.8" height="25.3" fill="#16a34a" rx="1"/>
<rect x="134.4" y="114.6" width="8.8" height="400.4" fill="#2563eb" rx="1"/>
<rect x="145.2" y="85.0" width="8.8" height="430.0" fill="#dc2626" rx="1"/>
<rect x="156.0" y="282.0" width="8.8" height="233.0" fill="#16a34a" rx="1"/>
<rect x="174.8" y="337.5" width="8.8" height="177.5" fill="#2563eb" rx="1"/>
<rect x="185.6" y="102.3" width="8.8" height="412.7" fill="#dc2626" rx="1"/>
<rect x="196.4" y="314.4" width="8.8" height="200.6" fill="#16a34a" rx="1"/>
<text class="tick" x="231.5" y="537" text-anchor="middle">1.78</text>
<rect x="215.2" y="319.5" width="8.8" height="195.5" fill="#2563eb" rx="1"/>
<rect x="226.1" y="305.8" width="8.8" height="209.2" fill="#dc2626" rx="1"/>
<rect x="236.9" y="148.5" width="8.8" height="366.5" fill="#16a34a" rx="1"/>
<rect x="255.7" y="358.4" width="8.8" height="156.6" fill="#2563eb" rx="1"/>
<rect x="266.5" y="322.4" width="8.8" height="192.6" fill="#dc2626" rx="1"/>
<rect x="277.3" y="294.9" width="8.8" height="220.1" fill="#16a34a" rx="1"/>
<rect x="296.1" y="367.1" width="8.8" height="147.9" fill="#2563eb" rx="1"/>
<rect x="306.9" y="338.2" width="8.8" height="176.8" fill="#dc2626" rx="1"/>
<rect x="317.7" y="237.2" width="8.8" height="277.8" fill="#16a34a" rx="1"/>
<text class="tick" x="352.7" y="537" text-anchor="middle">3.54</text>
<rect x="336.5" y="396.0" width="8.8" height="119.0" fill="#2563eb" rx="1"/>
<rect x="347.3" y="346.2" width="8.8" height="168.8" fill="#dc2626" rx="1"/>
<rect x="358.1" y="303.6" width="8.8" height="211.4" fill="#16a34a" rx="1"/>
<rect x="376.9" y="445.0" width="8.8" height="70.0" fill="#2563eb" rx="1"/>
<rect x="387.7" y="451.5" width="8.8" height="63.5" fill="#dc2626" rx="1"/>
<rect x="398.5" y="403.2" width="8.8" height="111.8" fill="#16a34a" rx="1"/>
<rect x="417.3" y="447.2" width="8.8" height="67.8" fill="#2563eb" rx="1"/>
<rect x="428.1" y="490.5" width="8.8" height="24.5" fill="#dc2626" rx="1"/>
<rect x="438.9" y="480.4" width="8.8" height="34.6" fill="#16a34a" rx="1"/>
<text class="tick" x="474.0" y="537" text-anchor="middle">5.29</text>
<rect x="457.8" y="496.2" width="8.8" height="18.8" fill="#2563eb" rx="1"/>
<rect x="468.6" y="481.1" width="8.8" height="33.9" fill="#dc2626" rx="1"/>
<rect x="479.4" y="491.2" width="8.8" height="23.8" fill="#16a34a" rx="1"/>
<rect x="498.2" y="497.0" width="8.8" height="18.0" fill="#2563eb" rx="1"/>
<rect x="509.0" y="400.3" width="8.8" height="114.7" fill="#dc2626" rx="1"/>
<rect x="519.8" y="455.8" width="8.8" height="59.2" fill="#16a34a" rx="1"/>
<rect x="538.6" y="432.0" width="8.8" height="83.0" fill="#2563eb" rx="1"/>
<rect x="549.4" y="400.3" width="8.8" height="114.7" fill="#dc2626" rx="1"/>
<rect x="560.2" y="419.8" width="8.8" height="95.2" fill="#16a34a" rx="1"/>
<text class="tick" x="595.2" y="537" text-anchor="middle">7.05</text>
<rect x="579.0" y="422.7" width="8.8" height="92.3" fill="#2563eb" rx="1"/>
<rect x="589.8" y="268.3" width="8.8" height="246.7" fill="#dc2626" rx="1"/>
<rect x="600.6" y="274.7" width="8.8" height="240.3" fill="#16a34a" rx="1"/>
<rect x="619.4" y="403.2" width="8.8" height="111.8" fill="#2563eb" rx="1"/>
<rect x="630.2" y="266.1" width="8.8" height="248.9" fill="#dc2626" rx="1"/>
<rect x="641.0" y="236.5" width="8.8" height="278.5" fill="#16a34a" rx="1"/>
<rect x="659.8" y="346.2" width="8.8" height="168.8" fill="#2563eb" rx="1"/>
<rect x="670.6" y="254.5" width="8.8" height="260.5" fill="#dc2626" rx="1"/>
<rect x="681.4" y="258.9" width="8.8" height="256.1" fill="#16a34a" rx="1"/>
<text class="tick" x="716.5" y="537" text-anchor="middle">8.80</text>
<rect x="700.2" y="229.3" width="8.8" height="285.7" fill="#2563eb" rx="1"/>
<rect x="711.1" y="364.9" width="8.8" height="150.1" fill="#dc2626" rx="1"/>
<rect x="721.9" y="331.7" width="8.8" height="183.3" fill="#16a34a" rx="1"/>
<rect x="740.7" y="266.8" width="8.8" height="248.2" fill="#2563eb" rx="1"/>
<rect x="751.5" y="434.9" width="8.8" height="80.1" fill="#dc2626" rx="1"/>
<rect x="762.3" y="448.6" width="8.8" height="66.4" fill="#16a34a" rx="1"/>
<rect x="781.1" y="352.7" width="8.8" height="162.3" fill="#2563eb" rx="1"/>
<rect x="791.9" y="504.2" width="8.8" height="10.8" fill="#dc2626" rx="1"/>
<rect x="802.7" y="495.5" width="8.8" height="19.5" fill="#16a34a" rx="1"/>
<text class="tick" x="837.7" y="537" text-anchor="middle">10.56</text>
<rect x="821.5" y="445.7" width="8.8" height="69.3" fill="#2563eb" rx="1"/>
<rect x="832.3" y="499.8" width="8.8" height="15.2" fill="#dc2626" rx="1"/>
<rect x="843.1" y="499.1" width="8.8" height="15.9" fill="#16a34a" rx="1"/>
<rect x="861.9" y="478.2" width="8.8" height="36.8" fill="#2563eb" rx="1"/>
<rect x="872.7" y="504.9" width="8.8" height="10.1" fill="#dc2626" rx="1"/>
<rect x="883.5" y="465.9" width="8.8" height="49.1" fill="#16a34a" rx="1"/>
<rect x="902.3" y="512.8" width="8.8" height="2.2" fill="#2563eb" rx="1"/>
<rect x="913.1" y="503.5" width="8.8" height="11.5" fill="#dc2626" rx="1"/>
<rect x="923.9" y="498.4" width="8.8" height="16.6" fill="#16a34a" rx="1"/>
<text class="tick" x="959.0" y="537" text-anchor="middle">12.31</text>
<rect x="942.8" y="512.1" width="8.8" height="2.9" fill="#2563eb" rx="1"/>
<rect x="953.6" y="489.7" width="8.8" height="25.3" fill="#dc2626" rx="1"/>
<rect x="964.4" y="498.4" width="8.8" height="16.6" fill="#16a34a" rx="1"/>
<rect x="983.2" y="497.7" width="8.8" height="17.3" fill="#2563eb" rx="1"/>
<rect x="994.0" y="512.1" width="8.8" height="2.9" fill="#dc2626" rx="1"/>
<rect x="1004.8" y="499.1" width="8.8" height="15.9" fill="#16a34a" rx="1"/>
<rect x="1023.6" y="498.4" width="8.8" height="16.6" fill="#2563eb" rx="1"/>
<rect x="1034.4" y="515.0" width="8.8" height="0.0" fill="#dc2626" rx="1"/>
<rect x="1045.2" y="490.5" width="8.8" height="24.5" fill="#16a34a" rx="1"/>
<rect x="90" y="552" width="16" height="16" fill="#2563eb" rx="2"/>
<text class="legend" x="114" y="565">baseline</text>
<rect x="340" y="552" width="16" height="16" fill="#dc2626" rx="2"/>
<text class="legend" x="364" y="565">no-mul-forwarding</text>
<rect x="590" y="552" width="16" height="16" fill="#16a34a" rx="2"/>
<text class="legend" x="614" y="565">no-alu-forwarding</text>
</svg>
