<svg xmlns="http://www.w3.org/2000/svg" width="1180" height="660" viewBox="0 0 1180 660">
<rect width="100%" height="100%" fill="#ffffff"/>
<style>text{font-family:Inter,Arial,sans-serif;fill:#111827}.title{font-size:30px;font-weight:700}.subtitle{font-size:15px;fill:#4b5563}.axis{font-size:15px;font-weight:600;fill:#374151}.tick{font-size:13px;fill:#6b7280}.grid{stroke:#e5e7eb}.axisline{stroke:#374151;stroke-width:1.5}.legend{font-size:14px}</style>
<text class="title" x="590.0" y="38" text-anchor="middle">Timing Slack Distribution</text>
<text class="subtitle" x="590.0" y="64" text-anchor="middle">Post-implementation timing paths from Vivado report_timing</text>
<line class="grid" x1="100" y1="535.0" x2="1135" y2="535.0"/>
<text class="tick" x="90" y="539.0" text-anchor="end">0</text>
<line class="grid" x1="100" y1="423.8" x2="1135" y2="423.8"/>
<text class="tick" x="90" y="427.8" text-anchor="end">200</text>
<line class="grid" x1="100" y1="312.5" x2="1135" y2="312.5"/>
<text class="tick" x="90" y="316.5" text-anchor="end">400</text>
<line class="grid" x1="100" y1="201.2" x2="1135" y2="201.2"/>
<text class="tick" x="90" y="205.2" text-anchor="end">600</text>
<line class="grid" x1="100" y1="90.0" x2="1135" y2="90.0"/>
<text class="tick" x="90" y="94.0" text-anchor="end">800</text>
<line class="axisline" x1="100" y1="90" x2="100" y2="535"/>
<line class="axisline" x1="100" y1="535" x2="1135" y2="535"/>
<text class="axis" x="28" y="312.5" transform="rotate(-90 28 312.5)" text-anchor="middle">Timing path count</text>
<text class="axis" x="617.5" y="632" text-anchor="middle">Vivado path slack (ns, higher is better)</text>
<line class="axisline" x1="100.0" y1="535" x2="100.0" y2="541"/>
<text class="tick" x="100.0" y="559" text-anchor="middle">0</text>
<line class="axisline" x1="229.4" y1="535" x2="229.4" y2="541"/>
<text class="tick" x="229.4" y="559" text-anchor="middle">2</text>
<line class="axisline" x1="358.8" y1="535" x2="358.8" y2="541"/>
<text class="tick" x="358.8" y="559" text-anchor="middle">4</text>
<line class="axisline" x1="488.1" y1="535" x2="488.1" y2="541"/>
<text class="tick" x="488.1" y="559" text-anchor="middle">6</text>
<line class="axisline" x1="617.5" y1="535" x2="617.5" y2="541"/>
<text class="tick" x="617.5" y="559" text-anchor="middle">8</text>
<line class="axisline" x1="746.9" y1="535" x2="746.9" y2="541"/>
<text class="tick" x="746.9" y="559" text-anchor="middle">10</text>
<line class="axisline" x1="876.2" y1="535" x2="876.2" y2="541"/>
<text class="tick" x="876.2" y="559" text-anchor="middle">12</text>
<line class="axisline" x1="1005.6" y1="535" x2="1005.6" y2="541"/>
<text class="tick" x="1005.6" y="559" text-anchor="middle">14</text>
<line class="axisline" x1="1135.0" y1="535" x2="1135.0" y2="541"/>
<text class="tick" x="1135.0" y="559" text-anchor="middle">16</text>
<rect x="108.0" y="326.4" width="3.2" height="208.6" fill="#2563eb" rx="1"/>
<rect x="113.2" y="507.2" width="3.2" height="27.8" fill="#dc2626" rx="1"/>
<rect x="118.5" y="522.8" width="3.2" height="12.2" fill="#16a34a" rx="1"/>
<rect x="123.7" y="535.0" width="3.2" height="0.0" fill="#9333ea" rx="1"/>
<rect x="145.0" y="205.1" width="3.2" height="329.9" fill="#2563eb" rx="1"/>
<rect x="150.2" y="236.3" width="3.2" height="298.7" fill="#dc2626" rx="1"/>
<rect x="155.4" y="375.9" width="3.2" height="159.1" fill="#16a34a" rx="1"/>
<rect x="160.7" y="528.3" width="3.2" height="6.7" fill="#9333ea" rx="1"/>
<rect x="181.9" y="394.3" width="3.2" height="140.7" fill="#2563eb" rx="1"/>
<rect x="187.2" y="196.8" width="3.2" height="338.2" fill="#dc2626" rx="1"/>
<rect x="192.4" y="364.8" width="3.2" height="170.2" fill="#16a34a" rx="1"/>
<rect x="197.7" y="489.4" width="3.2" height="45.6" fill="#9333ea" rx="1"/>
<rect x="218.9" y="400.9" width="3.2" height="134.1" fill="#2563eb" rx="1"/>
<rect x="224.1" y="389.8" width="3.2" height="145.2" fill="#dc2626" rx="1"/>
<rect x="229.4" y="275.2" width="3.2" height="259.8" fill="#16a34a" rx="1"/>
<rect x="234.6" y="385.9" width="3.2" height="149.1" fill="#9333ea" rx="1"/>
<rect x="255.9" y="416.5" width="3.2" height="118.5" fill="#2563eb" rx="1"/>
<rect x="261.1" y="380.4" width="3.2" height="154.6" fill="#dc2626" rx="1"/>
<rect x="266.3" y="357.0" width="3.2" height="178.0" fill="#16a34a" rx="1"/>
<rect x="271.6" y="328.1" width="3.2" height="206.9" fill="#9333ea" rx="1"/>
<rect x="292.8" y="411.0" width="3.2" height="124.0" fill="#2563eb" rx="1"/>
<rect x="298.1" y="399.3" width="3.2" height="135.7" fill="#dc2626" rx="1"/>
<rect x="303.3" y="343.1" width="3.2" height="191.9" fill="#16a34a" rx="1"/>
<rect x="308.5" y="109.5" width="3.2" height="425.5" fill="#9333ea" rx="1"/>
<rect x="329.8" y="438.2" width="3.2" height="96.8" fill="#2563eb" rx="1"/>
<rect x="335.0" y="393.2" width="3.2" height="141.8" fill="#dc2626" rx="1"/>
<rect x="340.3" y="379.8" width="3.2" height="155.2" fill="#16a34a" rx="1"/>
<rect x="345.5" y="207.9" width="3.2" height="327.1" fill="#9333ea" rx="1"/>
<rect x="366.8" y="473.3" width="3.2" height="61.7" fill="#2563eb" rx="1"/>
<rect x="372.0" y="470.5" width="3.2" height="64.5" fill="#dc2626" rx="1"/>
<rect x="377.2" y="395.9" width="3.2" height="139.1" fill="#16a34a" rx="1"/>
<rect x="382.5" y="416.5" width="3.2" height="118.5" fill="#9333ea" rx="1"/>
<rect x="403.7" y="489.9" width="3.2" height="45.1" fill="#2563eb" rx="1"/>
<rect x="409.0" y="517.2" width="3.2" height="17.8" fill="#dc2626" rx="1"/>
<rect x="414.2" y="512.2" width="3.2" height="22.8" fill="#16a34a" rx="1"/>
<rect x="419.4" y="518.3" width="3.2" height="16.7" fill="#9333ea" rx="1"/>
<rect x="440.7" y="507.7" width="3.2" height="27.3" fill="#2563eb" rx="1"/>
<rect x="445.9" y="515.0" width="3.2" height="20.0" fill="#dc2626" rx="1"/>
<rect x="451.2" y="517.2" width="3.2" height="17.8" fill="#16a34a" rx="1"/>
<rect x="456.4" y="518.9" width="3.2" height="16.1" fill="#9333ea" rx="1"/>
<rect x="477.6" y="526.1" width="3.2" height="8.9" fill="#2563eb" rx="1"/>
<rect x="482.9" y="459.9" width="3.2" height="75.1" fill="#dc2626" rx="1"/>
<rect x="488.1" y="494.9" width="3.2" height="40.0" fill="#16a34a" rx="1"/>
<rect x="493.4" y="497.2" width="3.2" height="37.8" fill="#9333ea" rx="1"/>
<rect x="514.6" y="501.1" width="3.2" height="33.9" fill="#2563eb" rx="1"/>
<rect x="519.8" y="456.6" width="3.2" height="78.4" fill="#dc2626" rx="1"/>
<rect x="525.1" y="484.4" width="3.2" height="50.6" fill="#16a34a" rx="1"/>
<rect x="530.3" y="468.8" width="3.2" height="66.2" fill="#9333ea" rx="1"/>
<rect x="551.6" y="449.9" width="3.2" height="85.1" fill="#2563eb" rx="1"/>
<rect x="556.8" y="380.9" width="3.2" height="154.1" fill="#dc2626" rx="1"/>
<rect x="562.1" y="384.8" width="3.2" height="150.2" fill="#16a34a" rx="1"/>
<rect x="567.3" y="446.0" width="3.2" height="89.0" fill="#9333ea" rx="1"/>
<rect x="588.5" y="464.4" width="3.2" height="70.6" fill="#2563eb" rx="1"/>
<rect x="593.8" y="358.1" width="3.2" height="176.9" fill="#dc2626" rx="1"/>
<rect x="599.0" y="314.2" width="3.2" height="220.8" fill="#16a34a" rx="1"/>
<rect x="604.3" y="424.9" width="3.2" height="110.1" fill="#9333ea" rx="1"/>
<rect x="625.5" y="430.4" width="3.2" height="104.6" fill="#2563eb" rx="1"/>
<rect x="630.7" y="320.3" width="3.2" height="214.7" fill="#dc2626" rx="1"/>
<rect x="636.0" y="353.7" width="3.2" height="181.3" fill="#16a34a" rx="1"/>
<rect x="641.2" y="367.0" width="3.2" height="168.0" fill="#9333ea" rx="1"/>
<rect x="662.5" y="345.3" width="3.2" height="189.7" fill="#2563eb" rx="1"/>
<rect x="667.7" y="377.6" width="3.2" height="157.4" fill="#dc2626" rx="1"/>
<rect x="672.9" y="368.1" width="3.2" height="166.9" fill="#16a34a" rx="1"/>
<rect x="678.2" y="320.3" width="3.2" height="214.7" fill="#9333ea" rx="1"/>
<rect x="699.4" y="331.4" width="3.2" height="203.6" fill="#2563eb" rx="1"/>
<rect x="704.7" y="471.6" width="3.2" height="63.4" fill="#dc2626" rx="1"/>
<rect x="709.9" y="438.8" width="3.2" height="96.2" fill="#16a34a" rx="1"/>
<rect x="715.2" y="368.7" width="3.2" height="166.3" fill="#9333ea" rx="1"/>
<rect x="736.4" y="373.1" width="3.2" height="161.9" fill="#2563eb" rx="1"/>
<rect x="741.6" y="504.4" width="3.2" height="30.6" fill="#dc2626" rx="1"/>
<rect x="746.9" y="515.0" width="3.2" height="20.0" fill="#16a34a" rx="1"/>
<rect x="752.1" y="464.4" width="3.2" height="70.6" fill="#9333ea" rx="1"/>
<rect x="773.4" y="461.0" width="3.2" height="74.0" fill="#2563eb" rx="1"/>
<rect x="778.6" y="526.1" width="3.2" height="8.9" fill="#dc2626" rx="1"/>
<rect x="783.8" y="522.8" width="3.2" height="12.2" fill="#16a34a" rx="1"/>
<rect x="789.1" y="510.5" width="3.2" height="24.5" fill="#9333ea" rx="1"/>
<rect x="810.3" y="487.2" width="3.2" height="47.8" fill="#2563eb" rx="1"/>
<rect x="815.6" y="523.9" width="3.2" height="11.1" fill="#dc2626" rx="1"/>
<rect x="820.8" y="518.3" width="3.2" height="16.7" fill="#16a34a" rx="1"/>
<rect x="826.0" y="506.1" width="3.2" height="28.9" fill="#9333ea" rx="1"/>
<rect x="847.3" y="529.4" width="3.2" height="5.6" fill="#2563eb" rx="1"/>
<rect x="852.5" y="527.8" width="3.2" height="7.2" fill="#dc2626" rx="1"/>
<rect x="857.8" y="501.1" width="3.2" height="33.9" fill="#16a34a" rx="1"/>
<rect x="863.0" y="526.1" width="3.2" height="8.9" fill="#9333ea" rx="1"/>
<rect x="884.2" y="532.2" width="3.2" height="2.8" fill="#2563eb" rx="1"/>
<rect x="889.5" y="520.5" width="3.2" height="14.5" fill="#dc2626" rx="1"/>
<rect x="894.7" y="523.3" width="3.2" height="11.7" fill="#16a34a" rx="1"/>
<rect x="900.0" y="530.0" width="3.2" height="5.0" fill="#9333ea" rx="1"/>
<rect x="921.2" y="528.9" width="3.2" height="6.1" fill="#2563eb" rx="1"/>
<rect x="926.5" y="522.2" width="3.2" height="12.8" fill="#dc2626" rx="1"/>
<rect x="931.7" y="521.1" width="3.2" height="13.9" fill="#16a34a" rx="1"/>
<rect x="936.9" y="522.8" width="3.2" height="12.2" fill="#9333ea" rx="1"/>
<rect x="958.2" y="520.0" width="3.2" height="15.0" fill="#2563eb" rx="1"/>
<rect x="963.4" y="535.0" width="3.2" height="0.0" fill="#dc2626" rx="1"/>
<rect x="968.7" y="520.5" width="3.2" height="14.5" fill="#16a34a" rx="1"/>
<rect x="973.9" y="521.6" width="3.2" height="13.3" fill="#9333ea" rx="1"/>
<rect x="995.1" y="528.9" width="3.2" height="6.1" fill="#2563eb" rx="1"/>
<rect x="1000.4" y="535.0" width="3.2" height="0.0" fill="#dc2626" rx="1"/>
<rect x="1005.6" y="525.0" width="3.2" height="10.0" fill="#16a34a" rx="1"/>
<rect x="1010.9" y="522.2" width="3.2" height="12.8" fill="#9333ea" rx="1"/>
<rect x="1032.1" y="535.0" width="3.2" height="0.0" fill="#2563eb" rx="1"/>
<rect x="1037.3" y="535.0" width="3.2" height="0.0" fill="#dc2626" rx="1"/>
<rect x="1042.6" y="535.0" width="3.2" height="0.0" fill="#16a34a" rx="1"/>
<rect x="1047.8" y="535.0" width="3.2" height="0.0" fill="#9333ea" rx="1"/>
<rect x="1069.1" y="535.0" width="3.2" height="0.0" fill="#2563eb" rx="1"/>
<rect x="1074.3" y="535.0" width="3.2" height="0.0" fill="#dc2626" rx="1"/>
<rect x="1079.6" y="535.0" width="3.2" height="0.0" fill="#16a34a" rx="1"/>
<rect x="1084.8" y="535.0" width="3.2" height="0.0" fill="#9333ea" rx="1"/>
<rect x="1106.0" y="535.0" width="3.2" height="0.0" fill="#2563eb" rx="1"/>
<rect x="1111.3" y="535.0" width="3.2" height="0.0" fill="#dc2626" rx="1"/>
<rect x="1116.5" y="535.0" width="3.2" height="0.0" fill="#16a34a" rx="1"/>
<rect x="1121.8" y="535.0" width="3.2" height="0.0" fill="#9333ea" rx="1"/>
<rect x="100" y="582" width="16" height="16" fill="#2563eb" rx="2"/>
<text class="legend" x="124" y="595">Baseline</text>
<rect x="330" y="582" width="16" height="16" fill="#dc2626" rx="2"/>
<text class="legend" x="354" y="595">No MUL fwd</text>
<rect x="560" y="582" width="16" height="16" fill="#16a34a" rx="2"/>
<text class="legend" x="584" y="595">No ALU fwd</text>
<rect x="790" y="582" width="16" height="16" fill="#9333ea" rx="2"/>
<text class="legend" x="814" y="595">No ALU+MUL fwd</text>
</svg>
