<svg xmlns="http://www.w3.org/2000/svg" width="1100" height="620" viewBox="0 0 1100 620">
<rect width="100%" height="100%" fill="#ffffff"/>
<style>text{font-family:Inter,Arial,sans-serif;fill:#111827}.title{font-size:28px;font-weight:700}.subtitle{font-size:14px;fill:#4b5563}.axis{font-size:13px;fill:#374151}.tick{font-size:11px;fill:#6b7280}.grid{stroke:#e5e7eb}.axisline{stroke:#374151;stroke-width:1.5}.legend{font-size:14px}</style>
<text class="title" x="550.0" y="38" text-anchor="middle">Slack Histogram</text>
<text class="subtitle" x="550.0" y="62" text-anchor="middle">Parsed from reports/*/timing_paths.csv</text>
<line class="grid" x1="90" y1="515.0" x2="1060" y2="515.0"/>
<text class="tick" x="82" y="519.0" text-anchor="end">0</text>
<line class="grid" x1="90" y1="429.0" x2="1060" y2="429.0"/>
<text class="tick" x="82" y="433.0" text-anchor="end">239</text>
<line class="grid" x1="90" y1="343.0" x2="1060" y2="343.0"/>
<text class="tick" x="82" y="347.0" text-anchor="end">478</text>
<line class="grid" x1="90" y1="257.0" x2="1060" y2="257.0"/>
<text class="tick" x="82" y="261.0" text-anchor="end">718</text>
<line class="grid" x1="90" y1="171.0" x2="1060" y2="171.0"/>
<text class="tick" x="82" y="175.0" text-anchor="end">957</text>
<line class="grid" x1="90" y1="85.0" x2="1060" y2="85.0"/>
<text class="tick" x="82" y="89.0" text-anchor="end">1196</text>
<line class="axisline" x1="90" y1="85" x2="90" y2="515"/>
<line class="axisline" x1="90" y1="515" x2="1060" y2="515"/>
<text class="axis" x="22" y="300.0" transform="rotate(-90 22 300.0)" text-anchor="middle">Path count</text>
<text class="axis" x="575.0" y="595" text-anchor="middle">Slack (ns)</text>
<text class="tick" x="110.2" y="537" text-anchor="middle">0.09</text>
<rect x="94.0" y="513.2" width="14.2" height="1.8" fill="#2563eb" rx="1"/>
<rect x="110.2" y="438.1" width="14.2" height="76.9" fill="#dc2626" rx="1"/>
<rect x="134.4" y="417.6" width="14.2" height="97.4" fill="#2563eb" rx="1"/>
<rect x="150.6" y="266.6" width="14.2" height="248.4" fill="#dc2626" rx="1"/>
<rect x="174.8" y="244.3" width="14.2" height="270.7" fill="#2563eb" rx="1"/>
<rect x="191.0" y="414.3" width="14.2" height="100.7" fill="#dc2626" rx="1"/>
<text class="tick" x="231.5" y="537" text-anchor="middle">1.80</text>
<rect x="215.2" y="459.3" width="14.2" height="55.7" fill="#2563eb" rx="1"/>
<rect x="231.5" y="511.4" width="14.2" height="3.6" fill="#dc2626" rx="1"/>
<rect x="255.7" y="515.0" width="14.2" height="0.0" fill="#2563eb" rx="1"/>
<rect x="271.9" y="511.8" width="14.2" height="3.2" fill="#dc2626" rx="1"/>
<rect x="296.1" y="515.0" width="14.2" height="0.0" fill="#2563eb" rx="1"/>
<rect x="312.3" y="512.8" width="14.2" height="2.2" fill="#dc2626" rx="1"/>
<text class="tick" x="352.7" y="537" text-anchor="middle">3.52</text>
<rect x="336.5" y="512.5" width="14.2" height="2.5" fill="#2563eb" rx="1"/>
<rect x="352.7" y="466.1" width="14.2" height="48.9" fill="#dc2626" rx="1"/>
<rect x="376.9" y="507.4" width="14.2" height="7.6" fill="#2563eb" rx="1"/>
<rect x="393.1" y="388.4" width="14.2" height="126.6" fill="#dc2626" rx="1"/>
<rect x="417.3" y="402.1" width="14.2" height="112.9" fill="#2563eb" rx="1"/>
<rect x="433.5" y="400.7" width="14.2" height="114.3" fill="#dc2626" rx="1"/>
<text class="tick" x="474.0" y="537" text-anchor="middle">5.23</text>
<rect x="457.8" y="437.3" width="14.2" height="77.7" fill="#2563eb" rx="1"/>
<rect x="474.0" y="442.4" width="14.2" height="72.6" fill="#dc2626" rx="1"/>
<rect x="498.2" y="423.3" width="14.2" height="91.7" fill="#2563eb" rx="1"/>
<rect x="514.4" y="492.7" width="14.2" height="22.3" fill="#dc2626" rx="1"/>
<rect x="538.6" y="446.0" width="14.2" height="69.0" fill="#2563eb" rx="1"/>
<rect x="554.8" y="484.8" width="14.2" height="30.2" fill="#dc2626" rx="1"/>
<text class="tick" x="595.2" y="537" text-anchor="middle">6.94</text>
<rect x="579.0" y="496.3" width="14.2" height="18.7" fill="#2563eb" rx="1"/>
<rect x="595.2" y="511.4" width="14.2" height="3.6" fill="#dc2626" rx="1"/>
<rect x="619.4" y="485.5" width="14.2" height="29.5" fill="#2563eb" rx="1"/>
<rect x="635.6" y="514.3" width="14.2" height="0.7" fill="#dc2626" rx="1"/>
<rect x="659.8" y="511.8" width="14.2" height="3.2" fill="#2563eb" rx="1"/>
<rect x="676.0" y="514.6" width="14.2" height="0.4" fill="#dc2626" rx="1"/>
<text class="tick" x="716.5" y="537" text-anchor="middle">8.65</text>
<rect x="700.2" y="513.9" width="14.2" height="1.1" fill="#2563eb" rx="1"/>
<rect x="716.5" y="429.1" width="14.2" height="85.9" fill="#dc2626" rx="1"/>
<rect x="740.7" y="506.7" width="14.2" height="8.3" fill="#2563eb" rx="1"/>
<rect x="756.9" y="472.9" width="14.2" height="42.1" fill="#dc2626" rx="1"/>
<rect x="781.1" y="434.1" width="14.2" height="80.9" fill="#2563eb" rx="1"/>
<rect x="797.3" y="85.0" width="14.2" height="430.0" fill="#dc2626" rx="1"/>
<text class="tick" x="837.7" y="537" text-anchor="middle">10.36</text>
<rect x="821.5" y="468.3" width="14.2" height="46.7" fill="#2563eb" rx="1"/>
<rect x="837.7" y="459.6" width="14.2" height="55.4" fill="#dc2626" rx="1"/>
<rect x="861.9" y="457.1" width="14.2" height="57.9" fill="#2563eb" rx="1"/>
<rect x="878.1" y="501.7" width="14.2" height="13.3" fill="#dc2626" rx="1"/>
<rect x="902.3" y="108.4" width="14.2" height="406.6" fill="#2563eb" rx="1"/>
<rect x="918.5" y="498.5" width="14.2" height="16.5" fill="#dc2626" rx="1"/>
<text class="tick" x="959.0" y="537" text-anchor="middle">12.08</text>
<rect x="942.8" y="498.5" width="14.2" height="16.5" fill="#2563eb" rx="1"/>
<rect x="959.0" y="513.9" width="14.2" height="1.1" fill="#dc2626" rx="1"/>
<rect x="983.2" y="502.4" width="14.2" height="12.6" fill="#2563eb" rx="1"/>
<rect x="999.4" y="495.2" width="14.2" height="19.8" fill="#dc2626" rx="1"/>
<rect x="1023.6" y="495.9" width="14.2" height="19.1" fill="#2563eb" rx="1"/>
<rect x="1039.8" y="515.0" width="14.2" height="0.0" fill="#dc2626" rx="1"/>
<rect x="90" y="552" width="16" height="16" fill="#2563eb" rx="2"/>
<text class="legend" x="114" y="565">baseline</text>
<rect x="340" y="552" width="16" height="16" fill="#dc2626" rx="2"/>
<text class="legend" x="364" y="565">no-mul-forwarding</text>
</svg>
