<svg xmlns="http://www.w3.org/2000/svg" width="1100" height="620" viewBox="0 0 1100 620">
<rect width="100%" height="100%" fill="#ffffff"/>
<style>text{font-family:Inter,Arial,sans-serif;fill:#111827}.title{font-size:28px;font-weight:700}.subtitle{font-size:14px;fill:#4b5563}.axis{font-size:13px;fill:#374151}.tick{font-size:11px;fill:#6b7280}.grid{stroke:#e5e7eb}.axisline{stroke:#374151;stroke-width:1.5}.legend{font-size:14px}</style>
<text class="title" x="550.0" y="38" text-anchor="middle">Slack Histogram</text>
<text class="subtitle" x="550.0" y="62" text-anchor="middle">Parsed from reports/*/timing_paths.csv</text>
<line class="grid" x1="90" y1="515.0" x2="1060" y2="515.0"/>
<text class="tick" x="82" y="519.0" text-anchor="end">0</text>
<line class="grid" x1="90" y1="429.0" x2="1060" y2="429.0"/>
<text class="tick" x="82" y="433.0" text-anchor="end">165</text>
<line class="grid" x1="90" y1="343.0" x2="1060" y2="343.0"/>
<text class="tick" x="82" y="347.0" text-anchor="end">331</text>
<line class="grid" x1="90" y1="257.0" x2="1060" y2="257.0"/>
<text class="tick" x="82" y="261.0" text-anchor="end">496</text>
<line class="grid" x1="90" y1="171.0" x2="1060" y2="171.0"/>
<text class="tick" x="82" y="175.0" text-anchor="end">662</text>
<line class="grid" x1="90" y1="85.0" x2="1060" y2="85.0"/>
<text class="tick" x="82" y="89.0" text-anchor="end">827</text>
<line class="axisline" x1="90" y1="85" x2="90" y2="515"/>
<line class="axisline" x1="90" y1="515" x2="1060" y2="515"/>
<text class="axis" x="22" y="300.0" transform="rotate(-90 22 300.0)" text-anchor="middle">Path count</text>
<text class="axis" x="575.0" y="595" text-anchor="middle">Slack (ns)</text>
<text class="tick" x="110.2" y="537" text-anchor="middle">0.03</text>
<rect x="98.0" y="286.2" width="4.1" height="228.8" fill="#2563eb" rx="1"/>
<rect x="104.1" y="483.3" width="4.1" height="31.7" fill="#dc2626" rx="1"/>
<rect x="110.2" y="496.8" width="4.1" height="18.2" fill="#16a34a" rx="1"/>
<rect x="116.3" y="515.0" width="4.1" height="0.0" fill="#9333ea" rx="1"/>
<rect x="138.4" y="226.4" width="4.1" height="288.6" fill="#2563eb" rx="1"/>
<rect x="144.5" y="205.1" width="4.1" height="309.9" fill="#dc2626" rx="1"/>
<rect x="150.6" y="347.1" width="4.1" height="167.9" fill="#16a34a" rx="1"/>
<rect x="156.7" y="506.2" width="4.1" height="8.8" fill="#9333ea" rx="1"/>
<rect x="178.8" y="387.1" width="4.1" height="127.9" fill="#2563eb" rx="1"/>
<rect x="184.9" y="217.6" width="4.1" height="297.4" fill="#dc2626" rx="1"/>
<rect x="191.0" y="370.5" width="4.1" height="144.5" fill="#16a34a" rx="1"/>
<rect x="197.1" y="465.6" width="4.1" height="49.4" fill="#9333ea" rx="1"/>
<text class="tick" x="231.5" y="537" text-anchor="middle">1.78</text>
<rect x="219.2" y="373.6" width="4.1" height="141.4" fill="#2563eb" rx="1"/>
<rect x="225.4" y="363.2" width="4.1" height="151.8" fill="#dc2626" rx="1"/>
<rect x="231.5" y="250.9" width="4.1" height="264.1" fill="#16a34a" rx="1"/>
<rect x="237.6" y="358.0" width="4.1" height="157.0" fill="#9333ea" rx="1"/>
<rect x="259.7" y="401.7" width="4.1" height="113.3" fill="#2563eb" rx="1"/>
<rect x="265.8" y="376.7" width="4.1" height="138.3" fill="#dc2626" rx="1"/>
<rect x="271.9" y="356.4" width="4.1" height="158.6" fill="#16a34a" rx="1"/>
<rect x="278.0" y="307.0" width="4.1" height="208.0" fill="#9333ea" rx="1"/>
<rect x="300.1" y="409.4" width="4.1" height="105.6" fill="#2563eb" rx="1"/>
<rect x="306.2" y="388.1" width="4.1" height="126.9" fill="#dc2626" rx="1"/>
<rect x="312.3" y="314.8" width="4.1" height="200.2" fill="#16a34a" rx="1"/>
<rect x="318.4" y="85.0" width="4.1" height="430.0" fill="#9333ea" rx="1"/>
<text class="tick" x="352.7" y="537" text-anchor="middle">3.54</text>
<rect x="340.5" y="429.2" width="4.1" height="85.8" fill="#2563eb" rx="1"/>
<rect x="346.6" y="393.3" width="4.1" height="121.7" fill="#dc2626" rx="1"/>
<rect x="352.7" y="362.7" width="4.1" height="152.3" fill="#16a34a" rx="1"/>
<rect x="358.8" y="238.4" width="4.1" height="276.6" fill="#9333ea" rx="1"/>
<rect x="380.9" y="464.6" width="4.1" height="50.4" fill="#2563eb" rx="1"/>
<rect x="387.0" y="469.2" width="4.1" height="45.8" fill="#dc2626" rx="1"/>
<rect x="393.1" y="433.9" width="4.1" height="81.1" fill="#16a34a" rx="1"/>
<rect x="399.2" y="443.8" width="4.1" height="71.2" fill="#9333ea" rx="1"/>
<rect x="421.3" y="466.1" width="4.1" height="48.9" fill="#2563eb" rx="1"/>
<rect x="427.4" y="497.3" width="4.1" height="17.7" fill="#dc2626" rx="1"/>
<rect x="433.5" y="490.6" width="4.1" height="24.4" fill="#16a34a" rx="1"/>
<rect x="439.6" y="500.4" width="4.1" height="14.6" fill="#9333ea" rx="1"/>
<text class="tick" x="474.0" y="537" text-anchor="middle">5.29</text>
<rect x="461.8" y="501.5" width="4.1" height="13.5" fill="#2563eb" rx="1"/>
<rect x="467.9" y="490.6" width="4.1" height="24.4" fill="#dc2626" rx="1"/>
<rect x="474.0" y="497.8" width="4.1" height="17.2" fill="#16a34a" rx="1"/>
<rect x="480.1" y="497.8" width="4.1" height="17.2" fill="#9333ea" rx="1"/>
<rect x="502.2" y="502.0" width="4.1" height="13.0" fill="#2563eb" rx="1"/>
<rect x="508.3" y="432.3" width="4.1" height="82.7" fill="#dc2626" rx="1"/>
<rect x="514.4" y="472.4" width="4.1" height="42.6" fill="#16a34a" rx="1"/>
<rect x="520.5" y="476.5" width="4.1" height="38.5" fill="#9333ea" rx="1"/>
<rect x="542.6" y="455.2" width="4.1" height="59.8" fill="#2563eb" rx="1"/>
<rect x="548.7" y="432.3" width="4.1" height="82.7" fill="#dc2626" rx="1"/>
<rect x="554.8" y="444.8" width="4.1" height="70.2" fill="#16a34a" rx="1"/>
<rect x="560.9" y="430.8" width="4.1" height="84.2" fill="#9333ea" rx="1"/>
<text class="tick" x="595.2" y="537" text-anchor="middle">7.05</text>
<rect x="583.0" y="448.4" width="4.1" height="66.6" fill="#2563eb" rx="1"/>
<rect x="589.1" y="336.1" width="4.1" height="178.9" fill="#dc2626" rx="1"/>
<rect x="595.2" y="340.3" width="4.1" height="174.7" fill="#16a34a" rx="1"/>
<rect x="601.3" y="426.6" width="4.1" height="88.4" fill="#9333ea" rx="1"/>
<rect x="623.4" y="434.4" width="4.1" height="80.6" fill="#2563eb" rx="1"/>
<rect x="629.5" y="336.7" width="4.1" height="178.3" fill="#dc2626" rx="1"/>
<rect x="635.6" y="317.4" width="4.1" height="197.6" fill="#16a34a" rx="1"/>
<rect x="641.7" y="406.9" width="4.1" height="108.1" fill="#9333ea" rx="1"/>
<rect x="663.8" y="393.3" width="4.1" height="121.7" fill="#2563eb" rx="1"/>
<rect x="669.9" y="325.2" width="4.1" height="189.8" fill="#dc2626" rx="1"/>
<rect x="676.0" y="330.4" width="4.1" height="184.6" fill="#16a34a" rx="1"/>
<rect x="682.1" y="306.5" width="4.1" height="208.5" fill="#9333ea" rx="1"/>
<text class="tick" x="716.5" y="537" text-anchor="middle">8.80</text>
<rect x="704.2" y="307.5" width="4.1" height="207.5" fill="#2563eb" rx="1"/>
<rect x="710.4" y="408.9" width="4.1" height="106.1" fill="#dc2626" rx="1"/>
<rect x="716.5" y="379.8" width="4.1" height="135.2" fill="#16a34a" rx="1"/>
<rect x="722.6" y="329.9" width="4.1" height="185.1" fill="#9333ea" rx="1"/>
<rect x="744.7" y="337.7" width="4.1" height="177.3" fill="#2563eb" rx="1"/>
<rect x="750.8" y="457.3" width="4.1" height="57.7" fill="#dc2626" rx="1"/>
<rect x="756.9" y="470.3" width="4.1" height="44.7" fill="#16a34a" rx="1"/>
<rect x="763.0" y="388.1" width="4.1" height="126.9" fill="#9333ea" rx="1"/>
<rect x="785.1" y="397.0" width="4.1" height="118.0" fill="#2563eb" rx="1"/>
<rect x="791.2" y="507.2" width="4.1" height="7.8" fill="#dc2626" rx="1"/>
<rect x="797.3" y="501.0" width="4.1" height="14.0" fill="#16a34a" rx="1"/>
<rect x="803.4" y="488.0" width="4.1" height="27.0" fill="#9333ea" rx="1"/>
<text class="tick" x="837.7" y="537" text-anchor="middle">10.56</text>
<rect x="825.5" y="466.1" width="4.1" height="48.9" fill="#2563eb" rx="1"/>
<rect x="831.6" y="504.1" width="4.1" height="10.9" fill="#dc2626" rx="1"/>
<rect x="837.7" y="503.0" width="4.1" height="12.0" fill="#16a34a" rx="1"/>
<rect x="843.8" y="481.7" width="4.1" height="33.3" fill="#9333ea" rx="1"/>
<rect x="865.9" y="488.5" width="4.1" height="26.5" fill="#2563eb" rx="1"/>
<rect x="872.0" y="507.2" width="4.1" height="7.8" fill="#dc2626" rx="1"/>
<rect x="878.1" y="480.2" width="4.1" height="34.8" fill="#16a34a" rx="1"/>
<rect x="884.2" y="504.6" width="4.1" height="10.4" fill="#9333ea" rx="1"/>
<rect x="906.3" y="513.4" width="4.1" height="1.6" fill="#2563eb" rx="1"/>
<rect x="912.4" y="506.7" width="4.1" height="8.3" fill="#dc2626" rx="1"/>
<rect x="918.5" y="503.0" width="4.1" height="12.0" fill="#16a34a" rx="1"/>
<rect x="924.6" y="508.2" width="4.1" height="6.8" fill="#9333ea" rx="1"/>
<text class="tick" x="959.0" y="537" text-anchor="middle">12.31</text>
<rect x="946.8" y="512.9" width="4.1" height="2.1" fill="#2563eb" rx="1"/>
<rect x="952.9" y="497.3" width="4.1" height="17.7" fill="#dc2626" rx="1"/>
<rect x="959.0" y="503.0" width="4.1" height="12.0" fill="#16a34a" rx="1"/>
<rect x="965.1" y="504.6" width="4.1" height="10.4" fill="#9333ea" rx="1"/>
<rect x="987.2" y="502.5" width="4.1" height="12.5" fill="#2563eb" rx="1"/>
<rect x="993.3" y="512.9" width="4.1" height="2.1" fill="#dc2626" rx="1"/>
<rect x="999.4" y="503.6" width="4.1" height="11.4" fill="#16a34a" rx="1"/>
<rect x="1005.5" y="505.6" width="4.1" height="9.4" fill="#9333ea" rx="1"/>
<rect x="1027.6" y="503.0" width="4.1" height="12.0" fill="#2563eb" rx="1"/>
<rect x="1033.7" y="515.0" width="4.1" height="0.0" fill="#dc2626" rx="1"/>
<rect x="1039.8" y="497.3" width="4.1" height="17.7" fill="#16a34a" rx="1"/>
<rect x="1045.9" y="496.8" width="4.1" height="18.2" fill="#9333ea" rx="1"/>
<rect x="90" y="552" width="16" height="16" fill="#2563eb" rx="2"/>
<text class="legend" x="114" y="565">baseline</text>
<rect x="340" y="552" width="16" height="16" fill="#dc2626" rx="2"/>
<text class="legend" x="364" y="565">no-mul-forwarding</text>
<rect x="590" y="552" width="16" height="16" fill="#16a34a" rx="2"/>
<text class="legend" x="614" y="565">no-alu-forwarding</text>
<rect x="840" y="552" width="16" height="16" fill="#9333ea" rx="2"/>
<text class="legend" x="864" y="565">no-alu-mul-forwarding</text>
</svg>
