<svg xmlns="http://www.w3.org/2000/svg" width="1180" height="680" viewBox="0 0 1180 680">
<rect width="100%" height="100%" fill="#ffffff"/>
<style>text{font-family:Inter,Arial,sans-serif;fill:#111827}.title{font-size:30px;font-weight:700}.subtitle{font-size:15px;fill:#4b5563}.axis{font-size:15px;font-weight:600;fill:#374151}.tick{font-size:13px;fill:#6b7280}.label{font-size:13px;fill:#111827}.legend{font-size:14px}.grid{stroke:#e5e7eb;stroke-width:1}.axisline{stroke:#374151;stroke-width:1.5}</style>
<text class="title" x="590.0" y="38" text-anchor="middle">FPGA Resource Utilization</text>
<text class="subtitle" x="590.0" y="64" text-anchor="middle">Post-implementation utilization on Zynq-7020</text>
<line class="grid" x1="125" y1="555.0" x2="1115" y2="555.0"/>
<text class="tick" x="115" y="559.0" text-anchor="end">0%</text>
<line class="grid" x1="125" y1="463.0" x2="1115" y2="463.0"/>
<text class="tick" x="115" y="467.0" text-anchor="end">2%</text>
<line class="grid" x1="125" y1="371.0" x2="1115" y2="371.0"/>
<text class="tick" x="115" y="375.0" text-anchor="end">4%</text>
<line class="grid" x1="125" y1="279.0" x2="1115" y2="279.0"/>
<text class="tick" x="115" y="283.0" text-anchor="end">6%</text>
<line class="grid" x1="125" y1="187.0" x2="1115" y2="187.0"/>
<text class="tick" x="115" y="191.0" text-anchor="end">8%</text>
<line class="grid" x1="125" y1="95.0" x2="1115" y2="95.0"/>
<text class="tick" x="115" y="99.0" text-anchor="end">10%</text>
<line class="axisline" x1="125" y1="95" x2="125" y2="555"/>
<line class="axisline" x1="125" y1="555" x2="1115" y2="555"/>
<text class="axis" x="30" y="325.0" text-anchor="middle" transform="rotate(-90 30 325.0)">FPGA utilization (% of Zynq-7020)</text>
<text class="axis" x="620.0" y="652" text-anchor="middle">Vivado report_utilization resource type</text>
<text class="axis" x="248.8" y="590" text-anchor="middle">LUTs</text>
<rect x="156.0" y="194.4" width="37.4" height="360.6" fill="#2563eb" rx="3"/>
<text class="label" x="174.7" y="187.4" text-anchor="middle">7.84%</text>
<rect x="205.4" y="181.9" width="37.4" height="373.1" fill="#dc2626" rx="3"/>
<text class="label" x="224.1" y="174.9" text-anchor="middle">8.11%</text>
<rect x="254.8" y="192.1" width="37.4" height="362.9" fill="#16a34a" rx="3"/>
<text class="label" x="273.4" y="185.1" text-anchor="middle">7.89%</text>
<rect x="304.1" y="193.0" width="37.4" height="362.0" fill="#9333ea" rx="3"/>
<text class="label" x="322.8" y="186.0" text-anchor="middle">7.87%</text>
<text class="axis" x="496.2" y="590" text-anchor="middle">FFs/Regs</text>
<rect x="403.5" y="466.2" width="37.4" height="88.8" fill="#2563eb" rx="3"/>
<text class="label" x="422.2" y="459.2" text-anchor="middle">1.93%</text>
<rect x="452.9" y="464.4" width="37.4" height="90.6" fill="#dc2626" rx="3"/>
<text class="label" x="471.6" y="457.4" text-anchor="middle">1.97%</text>
<rect x="502.2" y="464.4" width="37.4" height="90.6" fill="#16a34a" rx="3"/>
<text class="label" x="520.9" y="457.4" text-anchor="middle">1.97%</text>
<rect x="551.6" y="464.4" width="37.4" height="90.6" fill="#9333ea" rx="3"/>
<text class="label" x="570.3" y="457.4" text-anchor="middle">1.97%</text>
<text class="axis" x="743.8" y="590" text-anchor="middle">DSPs</text>
<rect x="651.0" y="450.6" width="37.4" height="104.4" fill="#2563eb" rx="3"/>
<text class="label" x="669.7" y="443.6" text-anchor="middle">2.27%</text>
<rect x="700.4" y="450.6" width="37.4" height="104.4" fill="#dc2626" rx="3"/>
<text class="label" x="719.1" y="443.6" text-anchor="middle">2.27%</text>
<rect x="749.8" y="450.6" width="37.4" height="104.4" fill="#16a34a" rx="3"/>
<text class="label" x="768.4" y="443.6" text-anchor="middle">2.27%</text>
<rect x="799.1" y="450.6" width="37.4" height="104.4" fill="#9333ea" rx="3"/>
<text class="label" x="817.8" y="443.6" text-anchor="middle">2.27%</text>
<text class="axis" x="991.2" y="590" text-anchor="middle">BRAM Tiles</text>
<rect x="898.5" y="407.3" width="37.4" height="147.7" fill="#2563eb" rx="3"/>
<text class="label" x="917.2" y="400.3" text-anchor="middle">3.21%</text>
<rect x="947.9" y="407.3" width="37.4" height="147.7" fill="#dc2626" rx="3"/>
<text class="label" x="966.6" y="400.3" text-anchor="middle">3.21%</text>
<rect x="997.2" y="407.3" width="37.4" height="147.7" fill="#16a34a" rx="3"/>
<text class="label" x="1015.9" y="400.3" text-anchor="middle">3.21%</text>
<rect x="1046.6" y="407.3" width="37.4" height="147.7" fill="#9333ea" rx="3"/>
<text class="label" x="1065.3" y="400.3" text-anchor="middle">3.21%</text>
<rect x="125" y="622" width="16" height="16" fill="#2563eb" rx="2"/>
<text class="legend" x="149" y="635">Baseline</text>
<rect x="355" y="622" width="16" height="16" fill="#dc2626" rx="2"/>
<text class="legend" x="379" y="635">No MUL fwd</text>
<rect x="585" y="622" width="16" height="16" fill="#16a34a" rx="2"/>
<text class="legend" x="609" y="635">No ALU fwd</text>
<rect x="815" y="622" width="16" height="16" fill="#9333ea" rx="2"/>
<text class="legend" x="839" y="635">No ALU+MUL fwd</text>
</svg>
