<svg xmlns="http://www.w3.org/2000/svg" width="1100" height="660" viewBox="0 0 1100 660">
<rect width="100%" height="100%" fill="#ffffff"/>
<style>text{font-family:Inter,Arial,sans-serif;fill:#111827}.title{font-size:28px;font-weight:700}.subtitle{font-size:14px;fill:#4b5563}.axis{font-size:13px;fill:#374151}.tick{font-size:12px;fill:#6b7280}.label{font-size:12px;fill:#111827}.legend{font-size:14px}.grid{stroke:#e5e7eb;stroke-width:1}.axisline{stroke:#374151;stroke-width:1.5}</style>
<text class="title" x="550.0" y="38" text-anchor="middle">Vivado Utilization Comparison</text>
<text class="subtitle" x="550.0" y="62" text-anchor="middle">Resource utilization percentage parsed from reports/*/utilization.rpt</text>
<line class="grid" x1="120" y1="545.0" x2="1040" y2="545.0"/>
<text class="tick" x="110" y="549.0" text-anchor="end">0%</text>
<line class="grid" x1="120" y1="454.0" x2="1040" y2="454.0"/>
<text class="tick" x="110" y="458.0" text-anchor="end">2%</text>
<line class="grid" x1="120" y1="363.0" x2="1040" y2="363.0"/>
<text class="tick" x="110" y="367.0" text-anchor="end">4%</text>
<line class="grid" x1="120" y1="272.0" x2="1040" y2="272.0"/>
<text class="tick" x="110" y="276.0" text-anchor="end">6%</text>
<line class="grid" x1="120" y1="181.0" x2="1040" y2="181.0"/>
<text class="tick" x="110" y="185.0" text-anchor="end">8%</text>
<line class="grid" x1="120" y1="90.0" x2="1040" y2="90.0"/>
<text class="tick" x="110" y="94.0" text-anchor="end">10%</text>
<line class="axisline" x1="120" y1="90" x2="120" y2="545"/>
<line class="axisline" x1="120" y1="545" x2="1040" y2="545"/>
<text class="axis" x="28" y="317.5" text-anchor="middle" transform="rotate(-90 28 317.5)">Utilization (%)</text>
<text class="axis" x="235.0" y="580" text-anchor="middle">LUTs</text>
<rect x="151.0" y="188.3" width="33.0" height="356.7" fill="#2563eb" rx="3"/>
<text class="label" x="167.5" y="181.3" text-anchor="middle">7.84%</text>
<rect x="196.0" y="176.0" width="33.0" height="369.0" fill="#dc2626" rx="3"/>
<text class="label" x="212.5" y="169.0" text-anchor="middle">8.11%</text>
<rect x="241.0" y="186.0" width="33.0" height="359.0" fill="#ea580c" rx="3"/>
<text class="label" x="257.5" y="179.0" text-anchor="middle">7.89%</text>
<rect x="286.0" y="186.9" width="33.0" height="358.1" fill="#16a34a" rx="3"/>
<text class="label" x="302.5" y="179.9" text-anchor="middle">7.87%</text>
<text class="axis" x="465.0" y="580" text-anchor="middle">FFs/Regs</text>
<rect x="381.0" y="457.2" width="33.0" height="87.8" fill="#2563eb" rx="3"/>
<text class="label" x="397.5" y="450.2" text-anchor="middle">1.93%</text>
<rect x="426.0" y="455.4" width="33.0" height="89.6" fill="#dc2626" rx="3"/>
<text class="label" x="442.5" y="448.4" text-anchor="middle">1.97%</text>
<rect x="471.0" y="455.4" width="33.0" height="89.6" fill="#ea580c" rx="3"/>
<text class="label" x="487.5" y="448.4" text-anchor="middle">1.97%</text>
<rect x="516.0" y="455.4" width="33.0" height="89.6" fill="#16a34a" rx="3"/>
<text class="label" x="532.5" y="448.4" text-anchor="middle">1.97%</text>
<text class="axis" x="695.0" y="580" text-anchor="middle">DSPs</text>
<rect x="611.0" y="441.7" width="33.0" height="103.3" fill="#2563eb" rx="3"/>
<text class="label" x="627.5" y="434.7" text-anchor="middle">2.27%</text>
<rect x="656.0" y="441.7" width="33.0" height="103.3" fill="#dc2626" rx="3"/>
<text class="label" x="672.5" y="434.7" text-anchor="middle">2.27%</text>
<rect x="701.0" y="441.7" width="33.0" height="103.3" fill="#ea580c" rx="3"/>
<text class="label" x="717.5" y="434.7" text-anchor="middle">2.27%</text>
<rect x="746.0" y="441.7" width="33.0" height="103.3" fill="#16a34a" rx="3"/>
<text class="label" x="762.5" y="434.7" text-anchor="middle">2.27%</text>
<text class="axis" x="925.0" y="580" text-anchor="middle">BRAM Tiles</text>
<rect x="841.0" y="398.9" width="33.0" height="146.1" fill="#2563eb" rx="3"/>
<text class="label" x="857.5" y="391.9" text-anchor="middle">3.21%</text>
<rect x="886.0" y="398.9" width="33.0" height="146.1" fill="#dc2626" rx="3"/>
<text class="label" x="902.5" y="391.9" text-anchor="middle">3.21%</text>
<rect x="931.0" y="398.9" width="33.0" height="146.1" fill="#ea580c" rx="3"/>
<text class="label" x="947.5" y="391.9" text-anchor="middle">3.21%</text>
<rect x="976.0" y="398.9" width="33.0" height="146.1" fill="#16a34a" rx="3"/>
<text class="label" x="992.5" y="391.9" text-anchor="middle">3.21%</text>
<rect x="120" y="602" width="16" height="16" fill="#2563eb" rx="2"/>
<text class="legend" x="144" y="615">baseline</text>
<rect x="370" y="602" width="16" height="16" fill="#dc2626" rx="2"/>
<text class="legend" x="394" y="615">no-mul-forwarding</text>
<rect x="620" y="602" width="16" height="16" fill="#ea580c" rx="2"/>
<text class="legend" x="644" y="615">no-alu-forwarding</text>
<rect x="870" y="602" width="16" height="16" fill="#16a34a" rx="2"/>
<text class="legend" x="894" y="615">no-alu-mul-forwarding</text>
</svg>
