<svg xmlns="http://www.w3.org/2000/svg" width="1100" height="660" viewBox="0 0 1100 660">
<rect width="100%" height="100%" fill="#ffffff"/>
<style>text{font-family:Inter,Arial,sans-serif;fill:#111827}.title{font-size:28px;font-weight:700}.subtitle{font-size:14px;fill:#4b5563}.axis{font-size:13px;fill:#374151}.tick{font-size:12px;fill:#6b7280}.label{font-size:12px;fill:#111827}.legend{font-size:14px}.grid{stroke:#e5e7eb;stroke-width:1}.axisline{stroke:#374151;stroke-width:1.5}</style>
<text class="title" x="550.0" y="38" text-anchor="middle">Vivado Utilization Comparison</text>
<text class="subtitle" x="550.0" y="62" text-anchor="middle">Resource usage parsed from reports/*/utilization.rpt</text>
<line class="grid" x1="120" y1="545.0" x2="1040" y2="545.0"/>
<text class="tick" x="110" y="549.0" text-anchor="end">0</text>
<line class="grid" x1="120" y1="454.0" x2="1040" y2="454.0"/>
<text class="tick" x="110" y="458.0" text-anchor="end">946.22</text>
<line class="grid" x1="120" y1="363.0" x2="1040" y2="363.0"/>
<text class="tick" x="110" y="367.0" text-anchor="end">1892.44</text>
<line class="grid" x1="120" y1="272.0" x2="1040" y2="272.0"/>
<text class="tick" x="110" y="276.0" text-anchor="end">2838.66</text>
<line class="grid" x1="120" y1="181.0" x2="1040" y2="181.0"/>
<text class="tick" x="110" y="185.0" text-anchor="end">3784.88</text>
<line class="grid" x1="120" y1="90.0" x2="1040" y2="90.0"/>
<text class="tick" x="110" y="94.0" text-anchor="end">4731.1</text>
<line class="axisline" x1="120" y1="90" x2="120" y2="545"/>
<line class="axisline" x1="120" y1="545" x2="1040" y2="545"/>
<text class="axis" x="28" y="317.5" text-anchor="middle" transform="rotate(-90 28 317.5)">Used resources</text>
<text class="axis" x="235.0" y="580" text-anchor="middle">LUTs</text>
<rect x="151.0" y="149.3" width="78.0" height="395.7" fill="#2563eb" rx="3"/>
<text class="label" x="190.0" y="142.3" text-anchor="middle">4114 (7.73%)</text>
<rect x="241.0" y="149.3" width="78.0" height="395.7" fill="#dc2626" rx="3"/>
<text class="label" x="280.0" y="142.3" text-anchor="middle">4114 (7.73%)</text>
<text class="axis" x="465.0" y="580" text-anchor="middle">FFs/Regs</text>
<rect x="381.0" y="338.1" width="78.0" height="206.9" fill="#2563eb" rx="3"/>
<text class="label" x="420.0" y="331.1" text-anchor="middle">2151 (2.02%)</text>
<rect x="471.0" y="338.1" width="78.0" height="206.9" fill="#dc2626" rx="3"/>
<text class="label" x="510.0" y="331.1" text-anchor="middle">2151 (2.02%)</text>
<text class="axis" x="695.0" y="580" text-anchor="middle">DSPs</text>
<rect x="611.0" y="544.5" width="78.0" height="0.5" fill="#2563eb" rx="3"/>
<text class="label" x="650.0" y="537.5" text-anchor="middle">5 (2.27%)</text>
<rect x="701.0" y="544.5" width="78.0" height="0.5" fill="#dc2626" rx="3"/>
<text class="label" x="740.0" y="537.5" text-anchor="middle">5 (2.27%)</text>
<text class="axis" x="925.0" y="580" text-anchor="middle">BRAM Tiles</text>
<rect x="841.0" y="544.6" width="78.0" height="0.4" fill="#2563eb" rx="3"/>
<text class="label" x="880.0" y="537.6" text-anchor="middle">4.5 (3.21%)</text>
<rect x="931.0" y="544.6" width="78.0" height="0.4" fill="#dc2626" rx="3"/>
<text class="label" x="970.0" y="537.6" text-anchor="middle">4.5 (3.21%)</text>
<rect x="120" y="602" width="16" height="16" fill="#2563eb" rx="2"/>
<text class="legend" x="144" y="615">baseline</text>
<rect x="370" y="602" width="16" height="16" fill="#dc2626" rx="2"/>
<text class="legend" x="394" y="615">no-mul-forwarding</text>
</svg>
