<svg xmlns="http://www.w3.org/2000/svg" width="1180" height="620" viewBox="0 0 1180 620">
<rect width="100%" height="100%" fill="#ffffff"/>
<style>text{font-family:Inter,Arial,sans-serif;fill:#111111}.title{font-size:30px;font-weight:700}.subtitle{font-size:15px;fill:#4b5563}.axis{font-size:16px;font-weight:700;fill:#111111}.tick{font-size:14px;fill:#111111}.label{font-size:13px;fill:#111111}.legend{font-size:15px;fill:#111111}.grid{stroke:#d9d9d9;stroke-width:1}.axisline{stroke:#111111;stroke-width:1.7}</style>
<line class="grid" x1="125" y1="495.0" x2="1115" y2="495.0"/>
<text class="tick" x="115" y="499.0" text-anchor="end">0%</text>
<line class="grid" x1="125" y1="405.0" x2="1115" y2="405.0"/>
<text class="tick" x="115" y="409.0" text-anchor="end">2%</text>
<line class="grid" x1="125" y1="315.0" x2="1115" y2="315.0"/>
<text class="tick" x="115" y="319.0" text-anchor="end">4%</text>
<line class="grid" x1="125" y1="225.0" x2="1115" y2="225.0"/>
<text class="tick" x="115" y="229.0" text-anchor="end">6%</text>
<line class="grid" x1="125" y1="135.0" x2="1115" y2="135.0"/>
<text class="tick" x="115" y="139.0" text-anchor="end">8%</text>
<line class="grid" x1="125" y1="45.0" x2="1115" y2="45.0"/>
<text class="tick" x="115" y="49.0" text-anchor="end">10%</text>
<line class="axisline" x1="125" y1="45" x2="125" y2="495"/>
<line class="axisline" x1="125" y1="495" x2="1115" y2="495"/>
<text class="axis" x="30" y="270.0" text-anchor="middle" transform="rotate(-90 30 270.0)">FPGA utilization (% of Zynq-7020)</text>
<text class="axis" x="620.0" y="592" text-anchor="middle">Vivado report_utilization resource type</text>
<text class="axis" x="248.8" y="530" text-anchor="middle">LUTs</text>
<rect x="156.0" y="142.2" width="37.4" height="352.8" fill="#111111" stroke="#111111" stroke-width="1.2" rx="2"/>
<rect x="205.4" y="130.1" width="37.4" height="364.9" fill="#555555" stroke="#000000" stroke-width="1.2" rx="2"/>
<rect x="254.8" y="140.0" width="37.4" height="355.0" fill="#999999" stroke="#000000" stroke-width="1.2" rx="2"/>
<rect x="304.1" y="140.8" width="37.4" height="354.2" fill="#d0d0d0" stroke="#000000" stroke-width="1.2" rx="2"/>
<text class="axis" x="496.2" y="530" text-anchor="middle">FFs/Regs</text>
<rect x="403.5" y="408.1" width="37.4" height="86.9" fill="#111111" stroke="#111111" stroke-width="1.2" rx="2"/>
<rect x="452.9" y="406.4" width="37.4" height="88.6" fill="#555555" stroke="#000000" stroke-width="1.2" rx="2"/>
<rect x="502.2" y="406.4" width="37.4" height="88.6" fill="#999999" stroke="#000000" stroke-width="1.2" rx="2"/>
<rect x="551.6" y="406.4" width="37.4" height="88.6" fill="#d0d0d0" stroke="#000000" stroke-width="1.2" rx="2"/>
<text class="axis" x="743.8" y="530" text-anchor="middle">DSPs</text>
<rect x="651.0" y="392.9" width="37.4" height="102.1" fill="#111111" stroke="#111111" stroke-width="1.2" rx="2"/>
<rect x="700.4" y="392.9" width="37.4" height="102.1" fill="#555555" stroke="#000000" stroke-width="1.2" rx="2"/>
<rect x="749.8" y="392.9" width="37.4" height="102.1" fill="#999999" stroke="#000000" stroke-width="1.2" rx="2"/>
<rect x="799.1" y="392.9" width="37.4" height="102.1" fill="#d0d0d0" stroke="#000000" stroke-width="1.2" rx="2"/>
<text class="axis" x="991.2" y="530" text-anchor="middle">BRAM Tiles</text>
<rect x="898.5" y="350.5" width="37.4" height="144.5" fill="#111111" stroke="#111111" stroke-width="1.2" rx="2"/>
<rect x="947.9" y="350.5" width="37.4" height="144.5" fill="#555555" stroke="#000000" stroke-width="1.2" rx="2"/>
<rect x="997.2" y="350.5" width="37.4" height="144.5" fill="#999999" stroke="#000000" stroke-width="1.2" rx="2"/>
<rect x="1046.6" y="350.5" width="37.4" height="144.5" fill="#d0d0d0" stroke="#000000" stroke-width="1.2" rx="2"/>
<rect x="125" y="562" width="16" height="16" fill="#111111" stroke="#111111" stroke-width="1.2" rx="2"/>
<text class="legend" x="149" y="575">Baseline</text>
<rect x="355" y="562" width="16" height="16" fill="#555555" stroke="#000000" stroke-width="1.2" rx="2"/>
<text class="legend" x="379" y="575">No MUL fwd</text>
<rect x="585" y="562" width="16" height="16" fill="#999999" stroke="#000000" stroke-width="1.2" rx="2"/>
<text class="legend" x="609" y="575">No ALU fwd</text>
<rect x="815" y="562" width="16" height="16" fill="#d0d0d0" stroke="#000000" stroke-width="1.2" rx="2"/>
<text class="legend" x="839" y="575">No ALU+MUL fwd</text>
</svg>
