<svg xmlns="http://www.w3.org/2000/svg" width="1100" height="650" viewBox="0 0 1100 650">
<rect width="100%" height="100%" fill="#ffffff"/>
<style>text{font-family:Inter,Arial,sans-serif;fill:#111827}.title{font-size:28px;font-weight:700}.subtitle{font-size:14px;fill:#4b5563}.axis{font-size:13px;fill:#374151}.tick{font-size:12px;fill:#6b7280}.label{font-size:12px;fill:#111827}.legend{font-size:14px}.grid{stroke:#e5e7eb;stroke-width:1}.axisline{stroke:#374151;stroke-width:1.5}</style>
<text class="title" x="550.0" y="38" text-anchor="middle">Vivado Power Comparison</text>
<text class="subtitle" x="550.0" y="62" text-anchor="middle">Summary power metrics parsed from reports/*/power.rpt</text>
<line class="grid" x1="110" y1="530.0" x2="1045" y2="530.0"/>
<text class="tick" x="100" y="534.0" text-anchor="end">0</text>
<line class="grid" x1="110" y1="442.0" x2="1045" y2="442.0"/>
<text class="tick" x="100" y="446.0" text-anchor="end">0.032</text>
<line class="grid" x1="110" y1="354.0" x2="1045" y2="354.0"/>
<text class="tick" x="100" y="358.0" text-anchor="end">0.064</text>
<line class="grid" x1="110" y1="266.0" x2="1045" y2="266.0"/>
<text class="tick" x="100" y="270.0" text-anchor="end">0.096</text>
<line class="grid" x1="110" y1="178.0" x2="1045" y2="178.0"/>
<text class="tick" x="100" y="182.0" text-anchor="end">0.128</text>
<line class="grid" x1="110" y1="90.0" x2="1045" y2="90.0"/>
<text class="tick" x="100" y="94.0" text-anchor="end">0.16</text>
<line class="axisline" x1="110" y1="90" x2="110" y2="530"/>
<line class="axisline" x1="110" y1="530" x2="1045" y2="530"/>
<text class="axis" x="30" y="310.0" text-anchor="middle" transform="rotate(-90 30 310.0)">Power (W)</text>
<text class="axis" x="265.8" y="566" text-anchor="middle">Total On-Chip</text>
<rect x="210.8" y="202.8" width="110.0" height="327.2" fill="#9333ea" rx="3"/>
<text class="label" x="265.8" y="195.8" text-anchor="middle">119.0 mW</text>
<text class="axis" x="577.5" y="566" text-anchor="middle">Dynamic</text>
<rect x="522.5" y="494.2" width="110.0" height="35.8" fill="#9333ea" rx="3"/>
<text class="label" x="577.5" y="487.2" text-anchor="middle">13.0 mW</text>
<text class="axis" x="889.2" y="566" text-anchor="middle">Static</text>
<rect x="834.2" y="238.5" width="110.0" height="291.5" fill="#9333ea" rx="3"/>
<text class="label" x="889.2" y="231.5" text-anchor="middle">106.0 mW</text>
<rect x="110" y="589" width="16" height="16" fill="#9333ea" rx="2"/>
<text class="legend" x="134" y="602">no-alu-mul-forwarding</text>
</svg>
